<mxfile host="app.diagrams.net" modified="2020-05-15T16:46:47.779Z" agent="5.0 (Windows NT 10.0; Win64; x64) AppleWebKit/537.36 (KHTML, like Gecko) Chrome/81.0.4044.138 Safari/537.36 Edg/81.0.416.72" etag="7osiuADrbtCPuBQ10uwv" version="13.1.1" type="github">
  <diagram id="-6QoFjq3oAq6zP6yHUSg" name="Page-1">
    <mxGraphModel dx="1066" dy="737" grid="1" gridSize="10" guides="1" tooltips="1" connect="1" arrows="1" fold="1" page="1" pageScale="1" pageWidth="827" pageHeight="1169" math="0" shadow="0">
      <root>
        <mxCell id="0" />
        <mxCell id="1" parent="0" />
        <mxCell id="mjPxte4mI9RbIwE0YejD-2" value="" style="rounded=0;whiteSpace=wrap;html=1;dashed=1;" vertex="1" parent="1">
          <mxGeometry x="20" y="330" width="560" height="220" as="geometry" />
        </mxCell>
        <mxCell id="XCv0oeQW2MZha84L79fB-2" value="" style="strokeWidth=1;shadow=0;dashed=0;align=center;html=1;shape=mxgraph.mockup.containers.browserWindow;rSize=0;strokeColor=#666666;strokeColor2=#008cff;strokeColor3=#c4c4c4;mainText=,;recursiveResize=0;" parent="1" vertex="1">
          <mxGeometry x="440" y="10" width="370" height="255" as="geometry" />
        </mxCell>
        <mxCell id="XCv0oeQW2MZha84L79fB-3" value="Page 1" style="strokeWidth=1;shadow=0;dashed=0;align=center;html=1;shape=mxgraph.mockup.containers.anchor;fontSize=17;fontColor=#666666;align=left;" parent="XCv0oeQW2MZha84L79fB-2" vertex="1">
          <mxGeometry x="60" y="12" width="110" height="26" as="geometry" />
        </mxCell>
        <mxCell id="XCv0oeQW2MZha84L79fB-4" value="https://howcani.com" style="strokeWidth=1;shadow=0;dashed=0;align=center;html=1;shape=mxgraph.mockup.containers.anchor;rSize=0;fontSize=17;fontColor=#666666;align=left;" parent="XCv0oeQW2MZha84L79fB-2" vertex="1">
          <mxGeometry x="130" y="60" width="250" height="26" as="geometry" />
        </mxCell>
        <mxCell id="XCv0oeQW2MZha84L79fB-5" value="&lt;font style=&quot;font-size: 18px&quot;&gt;Angular 9 app&lt;br&gt;Google Speech API for ASR and TTS&lt;/font&gt;" style="text;html=1;resizable=0;autosize=1;align=left;verticalAlign=middle;points=[];fillColor=none;strokeColor=none;rounded=0;" parent="XCv0oeQW2MZha84L79fB-2" vertex="1">
          <mxGeometry x="10" y="115" width="310" height="40" as="geometry" />
        </mxCell>
        <mxCell id="XCv0oeQW2MZha84L79fB-6" value="" style="aspect=fixed;pointerEvents=1;shadow=0;dashed=0;html=1;strokeColor=none;labelPosition=center;verticalLabelPosition=bottom;verticalAlign=top;align=center;fillColor=#00188D;shape=mxgraph.azure.user" parent="XCv0oeQW2MZha84L79fB-2" vertex="1">
          <mxGeometry x="30" y="190" width="47" height="50" as="geometry" />
        </mxCell>
        <mxCell id="mjPxte4mI9RbIwE0YejD-6" style="edgeStyle=orthogonalEdgeStyle;rounded=0;orthogonalLoop=1;jettySize=auto;html=1;entryX=0.018;entryY=1.464;entryDx=0;entryDy=0;entryPerimeter=0;exitX=0;exitY=0.5;exitDx=0;exitDy=0;" edge="1" parent="1" source="XCv0oeQW2MZha84L79fB-7" target="mjPxte4mI9RbIwE0YejD-4">
          <mxGeometry relative="1" as="geometry">
            <mxPoint x="50" y="137.5" as="targetPoint" />
            <Array as="points">
              <mxPoint x="23" y="138" />
            </Array>
          </mxGeometry>
        </mxCell>
        <mxCell id="XCv0oeQW2MZha84L79fB-7" value="&lt;font style=&quot;font-size: 18px&quot;&gt;.Net Core API&lt;/font&gt;" style="whiteSpace=wrap;html=1;aspect=fixed;" parent="1" vertex="1">
          <mxGeometry x="110" y="72.5" width="130" height="130" as="geometry" />
        </mxCell>
        <mxCell id="XCv0oeQW2MZha84L79fB-8" value="" style="endArrow=classic;html=1;entryX=1;entryY=0.5;entryDx=0;entryDy=0;" parent="1" source="XCv0oeQW2MZha84L79fB-9" target="XCv0oeQW2MZha84L79fB-7" edge="1">
          <mxGeometry width="50" height="50" relative="1" as="geometry">
            <mxPoint x="436" y="138" as="sourcePoint" />
            <mxPoint x="400" y="130" as="targetPoint" />
          </mxGeometry>
        </mxCell>
        <mxCell id="XCv0oeQW2MZha84L79fB-9" value="Upload Video" style="text;html=1;strokeColor=none;fillColor=none;align=center;verticalAlign=middle;whiteSpace=wrap;rounded=0;" parent="1" vertex="1">
          <mxGeometry x="320" y="127.5" width="40" height="20" as="geometry" />
        </mxCell>
        <mxCell id="XCv0oeQW2MZha84L79fB-10" value="" style="endArrow=classic;html=1;entryX=1;entryY=0.5;entryDx=0;entryDy=0;" parent="1" target="XCv0oeQW2MZha84L79fB-9" edge="1">
          <mxGeometry width="50" height="50" relative="1" as="geometry">
            <mxPoint x="436" y="138" as="sourcePoint" />
            <mxPoint x="240" y="137.5" as="targetPoint" />
          </mxGeometry>
        </mxCell>
        <mxCell id="XCv0oeQW2MZha84L79fB-11" value="FFMPEG" style="rounded=0;whiteSpace=wrap;html=1;" parent="1" vertex="1">
          <mxGeometry x="100" y="380" width="120" height="60" as="geometry" />
        </mxCell>
        <mxCell id="XCv0oeQW2MZha84L79fB-12" value="Audio MP3" style="endArrow=classic;html=1;" parent="1" edge="1">
          <mxGeometry width="50" height="50" relative="1" as="geometry">
            <mxPoint x="220" y="410" as="sourcePoint" />
            <mxPoint x="300" y="410" as="targetPoint" />
          </mxGeometry>
        </mxCell>
        <mxCell id="XCv0oeQW2MZha84L79fB-14" value="video" style="endArrow=classic;html=1;" parent="1" edge="1">
          <mxGeometry width="50" height="50" relative="1" as="geometry">
            <mxPoint x="40" y="410" as="sourcePoint" />
            <mxPoint x="100" y="410" as="targetPoint" />
          </mxGeometry>
        </mxCell>
        <mxCell id="XCv0oeQW2MZha84L79fB-16" value="" style="aspect=fixed;html=1;points=[];align=center;image;fontSize=12;image=img/lib/mscae/Cognitive_Services.svg;" parent="1" vertex="1">
          <mxGeometry x="110" y="480" width="50" height="30" as="geometry" />
        </mxCell>
        <mxCell id="XCv0oeQW2MZha84L79fB-18" value="captions" style="edgeStyle=orthogonalEdgeStyle;rounded=0;orthogonalLoop=1;jettySize=auto;html=1;" parent="1" source="XCv0oeQW2MZha84L79fB-17" edge="1">
          <mxGeometry relative="1" as="geometry">
            <mxPoint x="490" y="410" as="targetPoint" />
          </mxGeometry>
        </mxCell>
        <mxCell id="XCv0oeQW2MZha84L79fB-17" value="Caption service" style="rounded=0;whiteSpace=wrap;html=1;" parent="1" vertex="1">
          <mxGeometry x="300" y="380" width="110" height="60" as="geometry" />
        </mxCell>
        <mxCell id="XCv0oeQW2MZha84L79fB-19" value="video" style="endArrow=classic;html=1;" parent="1" edge="1">
          <mxGeometry width="50" height="50" relative="1" as="geometry">
            <mxPoint x="40" y="495" as="sourcePoint" />
            <mxPoint x="110" y="495" as="targetPoint" />
          </mxGeometry>
        </mxCell>
        <mxCell id="XCv0oeQW2MZha84L79fB-20" value="tags" style="endArrow=classic;html=1;" parent="1" edge="1">
          <mxGeometry width="50" height="50" relative="1" as="geometry">
            <mxPoint x="160" y="500" as="sourcePoint" />
            <mxPoint x="480" y="500" as="targetPoint" />
            <Array as="points" />
          </mxGeometry>
        </mxCell>
        <mxCell id="mjPxte4mI9RbIwE0YejD-4" value="Prepare video assets" style="text;html=1;strokeColor=none;fillColor=none;align=center;verticalAlign=middle;whiteSpace=wrap;rounded=0;dashed=1;" vertex="1" parent="1">
          <mxGeometry x="30" y="300" width="140" height="20" as="geometry" />
        </mxCell>
        <mxCell id="mjPxte4mI9RbIwE0YejD-7" value="" style="shape=cylinder;whiteSpace=wrap;html=1;boundedLbl=1;backgroundOutline=1;dashed=1;" vertex="1" parent="1">
          <mxGeometry x="500" y="410" width="60" height="80" as="geometry" />
        </mxCell>
        <mxCell id="mjPxte4mI9RbIwE0YejD-10" value="" style="shadow=0;dashed=0;html=1;strokeColor=none;fillColor=#4495D1;labelPosition=center;verticalLabelPosition=bottom;verticalAlign=top;align=center;outlineConnect=0;shape=mxgraph.veeam.2d.file_system_browser;" vertex="1" parent="1">
          <mxGeometry x="30" y="427.6" width="44.8" height="44.8" as="geometry" />
        </mxCell>
        <mxCell id="mjPxte4mI9RbIwE0YejD-11" value="" style="strokeWidth=1;shadow=0;dashed=0;align=center;html=1;shape=mxgraph.mockup.containers.browserWindow;rSize=0;strokeColor=#666666;strokeColor2=#008cff;strokeColor3=#c4c4c4;mainText=,;recursiveResize=0;" vertex="1" parent="1">
          <mxGeometry x="414" y="650" width="380" height="350" as="geometry" />
        </mxCell>
        <mxCell id="mjPxte4mI9RbIwE0YejD-12" value="Page 1" style="strokeWidth=1;shadow=0;dashed=0;align=center;html=1;shape=mxgraph.mockup.containers.anchor;fontSize=17;fontColor=#666666;align=left;" vertex="1" parent="mjPxte4mI9RbIwE0YejD-11">
          <mxGeometry x="60" y="12" width="110" height="26" as="geometry" />
        </mxCell>
        <mxCell id="mjPxte4mI9RbIwE0YejD-13" value="https://admin.howcani.com" style="strokeWidth=1;shadow=0;dashed=0;align=center;html=1;shape=mxgraph.mockup.containers.anchor;rSize=0;fontSize=17;fontColor=#666666;align=left;" vertex="1" parent="mjPxte4mI9RbIwE0YejD-11">
          <mxGeometry x="130" y="60" width="250" height="26" as="geometry" />
        </mxCell>
        <mxCell id="mjPxte4mI9RbIwE0YejD-14" value="&lt;font style=&quot;font-size: 18px&quot;&gt;Angular 9 app&lt;br&gt;Google Speech API for ASR and TTS&lt;/font&gt;" style="text;html=1;resizable=0;autosize=1;align=left;verticalAlign=middle;points=[];fillColor=none;strokeColor=none;rounded=0;" vertex="1" parent="mjPxte4mI9RbIwE0YejD-11">
          <mxGeometry x="10" y="115" width="310" height="40" as="geometry" />
        </mxCell>
        <mxCell id="mjPxte4mI9RbIwE0YejD-22" value="" style="shadow=0;dashed=0;html=1;strokeColor=none;fillColor=#4495D1;labelPosition=center;verticalLabelPosition=bottom;verticalAlign=top;align=center;outlineConnect=0;shape=mxgraph.veeam.portal_admin;" vertex="1" parent="mjPxte4mI9RbIwE0YejD-11">
          <mxGeometry x="320" y="290" width="44.4" height="48.8" as="geometry" />
        </mxCell>
        <mxCell id="mjPxte4mI9RbIwE0YejD-16" value="" style="html=1;shadow=0;dashed=0;shape=mxgraph.bootstrap.rrect;rSize=5;strokeColor=#DFDFDF;html=1;whiteSpace=wrap;fillColor=#FFFFFF;fontColor=#000000;" vertex="1" parent="mjPxte4mI9RbIwE0YejD-11">
          <mxGeometry x="15" y="180" width="275" height="150" as="geometry" />
        </mxCell>
        <mxCell id="mjPxte4mI9RbIwE0YejD-17" value="Video to confirm" style="html=1;shadow=0;dashed=0;shape=mxgraph.bootstrap.topButton;rSize=5;strokeColor=none;fillColor=#0085FC;fontColor=#ffffff;perimeter=none;whiteSpace=wrap;resizeWidth=1;align=left;spacing=10;" vertex="1" parent="mjPxte4mI9RbIwE0YejD-16">
          <mxGeometry width="275" height="30" relative="1" as="geometry" />
        </mxCell>
        <mxCell id="mjPxte4mI9RbIwE0YejD-18" value="Video 1&amp;nbsp; 25/06/2020&amp;nbsp;" style="strokeColor=inherit;fillColor=inherit;gradientColor=inherit;fontColor=inherit;html=1;shadow=0;dashed=0;perimeter=none;whiteSpace=wrap;resizeWidth=1;align=left;spacing=10;" vertex="1" parent="mjPxte4mI9RbIwE0YejD-16">
          <mxGeometry width="275" height="30" relative="1" as="geometry">
            <mxPoint y="30" as="offset" />
          </mxGeometry>
        </mxCell>
        <mxCell id="mjPxte4mI9RbIwE0YejD-19" value="Video 2&amp;nbsp; 27/06/2020&amp;nbsp;" style="strokeColor=inherit;fillColor=inherit;gradientColor=inherit;fontColor=inherit;html=1;shadow=0;dashed=0;perimeter=none;whiteSpace=wrap;resizeWidth=1;align=left;spacing=10;" vertex="1" parent="mjPxte4mI9RbIwE0YejD-16">
          <mxGeometry width="275" height="30" relative="1" as="geometry">
            <mxPoint y="60" as="offset" />
          </mxGeometry>
        </mxCell>
        <mxCell id="mjPxte4mI9RbIwE0YejD-20" value="Video 3&amp;nbsp; 28/06/2020&amp;nbsp;" style="strokeColor=inherit;fillColor=inherit;gradientColor=inherit;fontColor=inherit;html=1;shadow=0;dashed=0;perimeter=none;whiteSpace=wrap;resizeWidth=1;align=left;spacing=10;" vertex="1" parent="mjPxte4mI9RbIwE0YejD-16">
          <mxGeometry width="275" height="30" relative="1" as="geometry">
            <mxPoint y="90" as="offset" />
          </mxGeometry>
        </mxCell>
        <mxCell id="mjPxte4mI9RbIwE0YejD-21" value="Video 4&amp;nbsp; 29/06/2020&amp;nbsp;" style="strokeColor=inherit;fillColor=inherit;gradientColor=inherit;fontColor=inherit;html=1;shadow=0;dashed=0;shape=mxgraph.bootstrap.bottomButton;rSize=5;perimeter=none;whiteSpace=wrap;resizeWidth=1;resizeHeight=0;align=left;spacing=10;" vertex="1" parent="mjPxte4mI9RbIwE0YejD-16">
          <mxGeometry y="1" width="275" height="30" relative="1" as="geometry">
            <mxPoint y="-30" as="offset" />
          </mxGeometry>
        </mxCell>
        <mxCell id="mjPxte4mI9RbIwE0YejD-24" value="Confirm" style="rounded=1;fillColor=#0057D8;align=center;strokeColor=none;html=1;fontColor=#ffffff;fontSize=12;dashed=1;" vertex="1" parent="mjPxte4mI9RbIwE0YejD-16">
          <mxGeometry x="161" y="30" width="86" height="23" as="geometry" />
        </mxCell>
        <mxCell id="mjPxte4mI9RbIwE0YejD-25" value="" style="html=1;shadow=0;dashed=0;shape=mxgraph.atlassian.checkbox;fillColor=#008465;strokeColor=none;html=1" vertex="1" parent="mjPxte4mI9RbIwE0YejD-16">
          <mxGeometry x="130.5" y="34.5" width="14" height="14" as="geometry" />
        </mxCell>
        <mxCell id="mjPxte4mI9RbIwE0YejD-35" value="Confirm" style="rounded=1;fillColor=#0057D8;align=center;strokeColor=none;html=1;fontColor=#ffffff;fontSize=12;dashed=1;" vertex="1" parent="mjPxte4mI9RbIwE0YejD-16">
          <mxGeometry x="161" y="63.5" width="86" height="23" as="geometry" />
        </mxCell>
        <mxCell id="mjPxte4mI9RbIwE0YejD-36" value="Confirm" style="rounded=1;fillColor=#0057D8;align=center;strokeColor=none;html=1;fontColor=#ffffff;fontSize=12;dashed=1;" vertex="1" parent="mjPxte4mI9RbIwE0YejD-16">
          <mxGeometry x="161" y="100" width="86" height="23" as="geometry" />
        </mxCell>
        <mxCell id="mjPxte4mI9RbIwE0YejD-37" value="Confirm" style="rounded=1;fillColor=#0057D8;align=center;strokeColor=none;html=1;fontColor=#ffffff;fontSize=12;dashed=1;" vertex="1" parent="mjPxte4mI9RbIwE0YejD-16">
          <mxGeometry x="161" y="127" width="86" height="23" as="geometry" />
        </mxCell>
        <mxCell id="mjPxte4mI9RbIwE0YejD-26" value="&lt;font style=&quot;font-size: 18px&quot;&gt;.Net Core API&lt;/font&gt;" style="whiteSpace=wrap;html=1;aspect=fixed;" vertex="1" parent="1">
          <mxGeometry x="110" y="790" width="130" height="130" as="geometry" />
        </mxCell>
        <mxCell id="mjPxte4mI9RbIwE0YejD-38" style="edgeStyle=orthogonalEdgeStyle;rounded=0;orthogonalLoop=1;jettySize=auto;html=1;entryX=1.046;entryY=0.654;entryDx=0;entryDy=0;entryPerimeter=0;" edge="1" parent="1" target="mjPxte4mI9RbIwE0YejD-26">
          <mxGeometry relative="1" as="geometry">
            <mxPoint x="410" y="875" as="sourcePoint" />
          </mxGeometry>
        </mxCell>
        <mxCell id="mjPxte4mI9RbIwE0YejD-39" value="VideoId" style="text;html=1;strokeColor=none;fillColor=none;align=center;verticalAlign=middle;whiteSpace=wrap;rounded=0;dashed=1;" vertex="1" parent="1">
          <mxGeometry x="270" y="845" width="40" height="20" as="geometry" />
        </mxCell>
        <mxCell id="mjPxte4mI9RbIwE0YejD-40" value="Video file" style="shadow=0;dashed=0;html=1;strokeColor=none;fillColor=#4495D1;labelPosition=center;verticalLabelPosition=bottom;verticalAlign=top;align=center;outlineConnect=0;shape=mxgraph.veeam.2d.file_system_browser;" vertex="1" parent="1">
          <mxGeometry x="47.6" y="980" width="44.8" height="44.8" as="geometry" />
        </mxCell>
        <mxCell id="mjPxte4mI9RbIwE0YejD-41" value="caption&lt;br&gt;tags" style="shape=cylinder;whiteSpace=wrap;html=1;boundedLbl=1;backgroundOutline=1;dashed=1;" vertex="1" parent="1">
          <mxGeometry x="39.99999999999999" y="1064.8" width="60" height="80" as="geometry" />
        </mxCell>
        <mxCell id="mjPxte4mI9RbIwE0YejD-44" value="YouTube&lt;br&gt;Data API v3" style="whiteSpace=wrap;html=1;aspect=fixed;dashed=1;" vertex="1" parent="1">
          <mxGeometry x="170" y="1010" width="80" height="80" as="geometry" />
        </mxCell>
        <mxCell id="mjPxte4mI9RbIwE0YejD-45" value="" style="endArrow=classic;html=1;entryX=-0.086;entryY=0.37;entryDx=0;entryDy=0;entryPerimeter=0;" edge="1" parent="1" target="mjPxte4mI9RbIwE0YejD-44">
          <mxGeometry width="50" height="50" relative="1" as="geometry">
            <mxPoint x="100" y="1010" as="sourcePoint" />
            <mxPoint x="150" y="960" as="targetPoint" />
          </mxGeometry>
        </mxCell>
        <mxCell id="mjPxte4mI9RbIwE0YejD-46" value="" style="endArrow=classic;html=1;" edge="1" parent="1">
          <mxGeometry width="50" height="50" relative="1" as="geometry">
            <mxPoint x="110" y="1114.8" as="sourcePoint" />
            <mxPoint x="160" y="1064.8" as="targetPoint" />
          </mxGeometry>
        </mxCell>
        <mxCell id="mjPxte4mI9RbIwE0YejD-48" value="" style="endArrow=classic;html=1;" edge="1" parent="1" target="mjPxte4mI9RbIwE0YejD-40">
          <mxGeometry width="50" height="50" relative="1" as="geometry">
            <mxPoint x="110" y="865" as="sourcePoint" />
            <mxPoint x="60" y="865" as="targetPoint" />
            <Array as="points">
              <mxPoint x="70" y="865" />
            </Array>
          </mxGeometry>
        </mxCell>
        <mxCell id="mjPxte4mI9RbIwE0YejD-49" value="" style="endArrow=classic;html=1;" edge="1" parent="1">
          <mxGeometry width="50" height="50" relative="1" as="geometry">
            <mxPoint x="250" y="1050" as="sourcePoint" />
            <mxPoint x="320" y="1050" as="targetPoint" />
          </mxGeometry>
        </mxCell>
        <mxCell id="mjPxte4mI9RbIwE0YejD-50" value="" style="shape=image;verticalLabelPosition=bottom;labelBackgroundColor=#ffffff;verticalAlign=top;aspect=fixed;imageAspect=0;image=data:image/png,iVBORw0KGgoAAAANSUhEUgAABD8AAAGSCAYAAADkc2rZAAAgAElEQVR4Aey9C5wdRZn3P5ckIH9UFhVmxehG2Ri5GFlxIO8CL4tZUMKuEhMgYUmMBkjmFpKFsHmjS4BwGS5JJCsBCYEoozAQdNG8LhqCfxNADIoQLmtk1QAqIZlbMgmTuZzn/Tw9U2fq9PS5zZzuc7r7O/mc9Ll0V1c99e2uen79VFXZ3/zN3wgvbAADMAADMAADMAADMAADMAADMAADMBBVBsqiWjDKxUULAzAAAzAAAzAAAzAAAzAAAzAAAzCgDCB+EPlC5A8MwAAMwAAMwAAMwAAMwAAMwAAMRJoBxA8AjzTgqLyovDAAAzAAAzAAAzAAAzAAAzAAA4gfiB+IHzAAAzAAAzAAAzAAAzAAAzAAAzAQaQYQPwA80oCj8KLwwgAMwAAMwAAMwAAMwAAMwAAMIH4gfiB+wAAMwAAMwAAMwAAMwAAMwAAMwECkGUD8APBIA47Ci8ILAzAAAzAAAzAAAzAAAzAAAzCA+IH4gfgBAzAAAzAAAzAAAzAAAzAAAzAAA5FmAPEDwCMNOAovCi8MwAAMwAAMwAAMwAAMwAAMwADiB+IH4gcMwAAMwAAMwAAMwAAMwAAMwAAMRJoBxA8AjzTgKLwovDAAAzAAAzAAAzAAAzAAAzAAA4gfiB+IHzAAAzAAAzAAAzAAAyFiYPz48XLiiSfKpz71KV7YAAZgAAZyZADxI0QNHWolaiUMwAAMwAAMwAAMxJsBFT4QPRB9YAAGYCB/BhA/ED940gMDMAADMAADMAADMBASBkzExzHHHCNHHnkkL2wAAzAAAzkygPgRkoaOpzzxfspD/VP/MAADMAADMAADyoB52ovwgfADAzAAA/kxgPiB+MGTHhiAARiAARiAARiAgZAwgPiRn7ODc4i9YAAGDAOIHyFp6Hjaw9MeGIABGIABGIABGIABxA8cOePIsYUFGMiPAcQPxA+e9MAADMAADMAADMAADISEAcSP/JwdnEPsBQMwYBhA/AhJQ8eTHp70wAAMwAAMwAAMwAAMIH7gyBlHji0swEB+DCB+IH7wpAcGYAAGYAAGYAAGYCAkDCB+5Ofs4BxiLxiAAcMA4kdIGjqe9PCkBwZgAAZgAAZgAAZgAPEDR844cmxhAQbyYwDxA/GDJz0wAAMwAAMwAAMwAAMhYQDxIz9nB+cQe8EADBgGED9C0tDxpIcnPUEy8MlPflLuvPNO56Xv/+3f/k2am5uzvubMmUPnmXsKDMAADMAADPjIAOIHjpxx5NjCAgzkxwDih4+NU5DO6kjO9ckPf1gurKpK+7r0qKNk5RFHeL70t0zHatojyRvHFkf0cYsfn//85+XSSy9Nvm677Tb53ve+54gi9vennXYa9c09BQZgAAZgAAZ8ZADxIz9nB+cQe8EADBgGED98bJxKzXH/1/e/Xx4+/HB55tBD5Y1Ro0TKygJ96Tn13JoHzUup2afU8qNCwoUXXph8BSksuMUPt200EqSpqUm++MUvUo8xuoe4OeBzccRJ7I7dYSDeDCB+4MgZR44tLMBAfgwgfsTAcTn3gx8sitiRTVxRMUTzlq4T53b+zz33XM999fsgRQJ3vuxzp3uvYkK6cqb7ftWqVWL/6ed0+xb6e8SPeHesC80T6cETDMAADBSOAcSP/JwdnEPsBQMwYBhA/Ii4+HHahz4kHRUVgUZ4ZBM97N81b+kEkOuuu872/eXll1/2dP7ffPPNlP2uvPJKz/0K1fFyixIpJ0/z4aKLLso7T+7zIH4UruNYKBZIhzqBARiAARgImgHEDxw548ixhQUYyI8BxI+Iix8/OeywkhU+jAiiefTqOGiEhfvPHUHhtY9+55Veob5zixLuPHp9Rvygc1wo/kgHlmAABmAg3gwgfuTn7OAcYi8YgAHDQEmLH/oEf+XKlUV5+R09EETHRScbNQJDqW81QsXLJu6oDreIcNlll6VoDa+88opnOl5pD/c7xI+/cSY6Zc6PeHe+h3v9cBzcwAAMwMDIGED8KJ4j96UvfUmuuuoqmTVrlhx99NFiHCq2xasTbI/t82GgpMWPX/ziFymObZAf9Nxhb5wvO+qo0Igfmlcvez/yyCMp1e4e+rFu3bqU3/WzVzqF/E4jS1SEMS/38BzNkPnNbN0RK7nkxy2yuMueSxrD3Yc5P0bWMR2u3TkOu8MADMAADGRjIEjxQ/PyhS98QWpra0UfDKrjv3DhQtGl7U899VQ56qijYiUAIH7gaOfjaLNv6fGC+JHiOg9+iIL4seqII0IjfmhevRp7d2THT37yk5T93AKZig1e6fj5nZ7T/VeI8yF+0AEuBEekAUcwAAMwEC0GghA/PvCBD8jZZ5+dFDxU9PB6XX755TJhwoTYCCCIH6XnzCIwUCf5MID44fZaBz5HQfxY9573hEb8eOTwwz1FC41AsP86OjpS9rN/0/fF6OAhfkSrU1kMhjgnDMEADMAADOTKQBDix1lnnZUUPr761a9KdXW1fPjDH5YPfehD8tGPflTOOeccJwJEBZH6+nr5xCc+EQsBBPEDRzsfR5t9S4+XkhY/cm0E2M+7w/CLQw8dufgxZ47I+PEjT6esLGMamtd09ajzeNh/ZkJTt+jgjgrR9HQZ3H/913915o3RbbrlctOdO5fv3fkolAiTKfJDI2J0PpxLL700rd1M3jV/1157bXL/XGzAsBfva8rYlC32gQEYgAEYKBYDfosfH/vYx6Surs6J9LjkkkukqqrKU9hQwUOFDxVAZsyYEYshMIgfpefMIjBQJ/kwgPgR4dVeCiZ+qDd//fUio0ZlFDBGMqlqJvHDLQKo468dDvdcG/rZdETUwdelcb3+3njjjSEiSDYBwz28xp5/I9ux7jzo/iaf7rLZEUfu3/Szlkvzb//pZ685RfQ87n3Ncc8884znMSZfiB906g0LbGEBBmAABkqLAb/Fj5NPPtkRNHSOj09/+tOewodxNnRojIofCxYskI9//OMZ9zXHhHmL+IGjHWZ+yfuRgviB+JFZ0NDID/P3xz+K6OcsURzD+f3lMWOSgoC7k6UOv/1nhAf3ZKgmIkS3Ojwm05/+bvbX82UTMEpB/NDypiuX/mbbTW2Wbl9jFxWH7GPs94gfpdXRteuG99QNDMAADMSbAb/Fj3/4h39wBI1FixbJ8ccfn1HQ+Lu/+ztnXxVA9L3budIJUSdNmuREqpoJUzWq5LzzznOG0Lj3tz/rEBvdz0Sh6Dn0vU7AqkNw7H3N+89+9rNOfnQ1lmOOOUZ0+I6JTtFymf3MVqNXZs6cmRzCo2X+yle+Ip/5zGfkfe9735D9bfFDI2JOOukkZ/JXu2zaB0sXLWPOyxYRBQaKwwDiR4TFj+GIEEOOscUP4zVv3izyv/93wUWQTJ25vXv3mrOLiY6wl8HV9+Z4tyiix6pgYqehidmCQRjED82zlkHL7y6LCh2m/LrVIUD2n372soGJorGP5X28O9XUP/UPAzAAA6XNgN/ihz4A0aHCKjZ87nOfGyIA5Oq0qUChQoKm4/VSUULP5ZWeCia6qozXcfqdRpqo8OA+1ogfKpL8y7/8S8rx+pvZXyd0nTJlSnJeE6/zXHzxxUNEDCN+6Go306dPT3t8puFCJg9si+P8Yvd42x3xA/Ejs4jhJX4Yr3rtWpEPfSjz8XlEiWTqbNnOvDr62ljaf/YSt/b3+t44+Lp1/5lzhkH8UMHDRKt4lUXLoOVx20bLrN/pb/pkwv6z7WZswba0O73UD/UDAzAAA/FmwG/xQ6MW1LlXQUD7Df/8z/88RATI5kBqGioAaBoNDQ1O/0UjMY4++mjR/OsqMfqbLqE7bty4pCih6U6cOFE0AkN/1wiOv/3bv3WiMFSw0GNramqc3zSNj3zkIynHGvFDj9WX7vP5z3/embDVjmIxE7pq+bT/pPOcaPpjx451ymsiOc4//3zne1NeI35o2rqPCiCaP41S0a3m1/ymfTZzHNt4O9zUf+nUf0mLH+qY6dwExXhFwSkcEsWRhxCRPDaT+KFe9MGDIv/n/xREAMnUmdMGxv5zfzYCh3uIjB5jp2unoe91f/09DOKHm0l3WYwN3GUxkTJe5bR/s+3E+3h3rKl/6h8GYAAGSpcBv8UPddR0+VozXESdeRUjLrjgAkd8UJEgmzNnRAhNw2slGBU8VPjQtHXeEJPe+9//frnwwgud7zVq5IMf/GDyN7OPll8jU7Qv6J6TxJxX03ULF+Z4FSlM2dLtY8QRjT457rjjknkw4oeeW/cxaZqtCjxG2NFyaHnMb2xLxwGmLuJbFyUtfqhjVqy/KDiFSQFjOKKHOSab+GEq6NVXRS68cEQiSKaOlqrn9p8dCaLfp4ts0N/sdO009L2JlnALBu7j3CyaeUc07WzHpjunHqvp2H82d+7f7HPqse4/87t7Ilg7TXdedUJU2z68L93OLnVD3cAADMAADCgDQYgf6hzqsBXtN6ijr2KCeelnjQzRYSde82KoYKEPZHR/jRpJ52j+0z/9U1Lk+Ou//mtnPxULTjzxRGfODS/RRNPSKIv58+c7x6rYYadvxA+NDsk2L4gOjXFHnZi0NALEnMOeK8SIH7Nnz04bDTNt2jQnbxoFopEuJk228XW4qfvSqXvED7cHOfDZdhjD2tmIkvihdeBe8tZUnV1XbsFA97Hrz54nRH8zgoFbFHAfp+ew/8xxmna2Y+3j9L3ub/Lkzm+mstjn9LKH+T1Tmm4RSfNj8sKWTjUMwAAMwAAMlD4DQYkfxmHToSU68aiJljAiiG41ykEjKcy+utWokSuuuMIRTTSv9m/2+1NPPdURCVSEUO7s3zK9z0X8UOFC93OnY0eW6LCcdOKELcJoeUw6RvzIJGzkso9Jj23pOMXURTzqoqTFDw3zV2ewGC/3EIMwdgYCET8CGvai9tc68fqzl7h1O/5u5z6diJFNwEh3nOYr27HuPBdK/EiXJ7cNdD+bX3d+7N94X/qdXuqIOoIBGICBeDMQtPhhO4XK3uTJk1NWYHEPbbFXgLGFknTv0y2Tq5EfOtRGxRF39IlJK13kRzrxQ8UOMy+HihR22XJ5n4uwkcs+uZyLfeLhjFPPwdZzSYsfNO4ja9x9Fz8CnPBUWfCa5FMdeTNvh+7jdvwRP0R0aMvKlSuTL8SPkV1X3JewHwzAAAzAQDEZKKb4YRw1He7y93//98kVWS699FJnaVn9faTihwoUU6dOTRE8VGDRoSz60rlCjBiC+BGs42jqny12DysDiB+s9pJ5ng6vOT+KsNSt6WS4HXd7iVvdB/HD2wZuu9mfjW3Z0pmHARiAARiAgdJnoBTED+P4mDk2dAJSnX9NvzfiR7qIDnNsuq0OsdHIDp1kVaNM3ENTRjLshcgPnPZ03PF9PNhA/Iiw+PGLQw/NLGyYSU0zbW3x449/FNHPmfYf5m+vjBmTMjQjXefLPdTjkUceSTkO8QPxIx07fF/6HXrqiDqCARiAgewM+Cl+2MJCLsNCdPlYsyytih7qQKoIkm41lmwOpj3R6Oc+9znPYSl2HvON/LDn/Jg5c2bKMrbZ8qa/5zKkJZd9cjkX+8TDGaeeg61nxA/Ej8xihhE/rr9eZNSozPsOU/hQMUWFmlw6PG7xQ8UO+zjEj6Hih3vOD9tevM/eycRG2AgGYAAGYKCUGPBT/LAjI9ItNWs7a7rUrBmCYsQPtZUOT9HojenTp+e13OvHP/5x0YgRPdakZ59P3+sqLib9fMUPPd5Eq2SaaFVXn9Hyaz7+8R//MSnC5CJs5LKPu0x8DtYBxt7xtTfiB+JHZkFDxY/x4zPvMwLRw0SRBCV+xH21l1LqvJEXnAkYgAEYgAEYyJ8BP8UPdQpPP/10R9BQUePss89OGx1RVVUlumKKCgQqJBx77LFJkcAeuvKZz3wm+b3tdOoyszoJvH2cvte0NE2vZXI/8IEPyJQpU5KCy3DED12dxqxcc/7553uWr7q62oleWbhwoRx33HHJ/OcibOSyj20H3sfXEafug6/7khY/3E/57XkK/H4fhafl697zHt9FCyNejHT7yOGHp0RwpOsMuZlwR37oyi/uPzst929m5ZVsK7ZkOm+2Y9OdU/PljlSxuXP/5i6rO13zu9sGdpp6Tv38zDPPyL333ut0Hmz78D7/Tig2w2YwAAMwAANBMuC3+KHRHxdeeKEjQKgI8dWvflVUDNCICx1yottTTjnFWeZWf9eXe4iK2kOXwdXfdFiMiig6pEUnSj3mmGPktNNOk4aGBud37UepqKGO4FFHHSUzZsxwvlfxRSc+VbFCz6l50LyYc+rWjsrQ401UR7rVXoyzedZZZyUFHj3/Rz/60WTeNK9mKI9bHMlF2MhlH5MPtsE7v9g83jZH/HB7kAOf3Q5jkI1aoc616ogjQiN+aF5zKbfWi/1nHH5zbL5ChFkpxus4bZhNupnO63WsOU637r9MS/Pa3GUSP3Q8rftP86Hnc+fHTtOdH/dvdr55T2ceBmAABmAABkqPAb/FD3UOVYSwIyxswcF+rwKF9qWMeGE7lhrFYQQQ+xj7vYosGkHiPm7evHkpIoc5Rs938cUXi4ob+t20adNSjs1V/HBHkJj0zVbPo8vsuvOWi7CRyz52eXkfb2ec+g+2/hE/3B7kwOcoOIWXHXVUaMQPzWsuHSytF/vPLX5oGu4/Iwp4LZVrzukWDDQNc5wKDR0dHSnJ2uf1Otakq9u9e/emHLtu3bpkWd3lsblzix+PP/548jhtlN1/RqzxEkb0O82L2wb2+ew88770OrvUCXUCAzAAAzCgDAQhfhiH7CMf+YgT1aEihvY9VBzQrYoPX/ziF+VjH/tYivhgjjNbFVEmTZokuhSuOV6HksyePVtOOukkJ9rC7GtvVXRQUcUMgdFj58yZ4xyjkSk6WanmRfs1H/zgB5N5yFX8MOf6xCc+4aSledL0NOLjy1/+sjNpq0apmP3MNhdhI5d9THpsg3V8sTf2LmnxQ2906gAW46XnDnsn45Mf/nBoxI/TPvShnOztFgtsEcLU109+8pMUXeCNN96QlStXim7tP/dKMfZv+l7316EhKny4BQz7vNnED3eeNT1N9+WXX3af0hmSYsqh53D/6TE6ZMX9517y120DPUZt4BZx7CgUc162dK5hAAZgAAZgoHQZCFL8wFnEWYQBGIgSAyUtftDwjrzh/clhh5W8AKJ5zLWu3UKCLUKYNPRJgVuscIsF+ruJlDDHuQUD+xgVw+w/+7zZxA/3HBzudOxJWO1IDLf4kSl/dn60PGqDbH96XhMRYmzAduTXHDbEhjAAAzAAA34ygPiBMxolZ5SywHOQDCB+RHi1F214NaJib0VFyQogmrdzP/jBgoofWm51/m1RwRYC9Hv93d0x8RJNVCQxUUB2GrbYkE38UIHhlVdesQ933pvhL7agk0n8ULHGLYhoQu4IFlMuDQVNJwLpedzijzmOLZ12GIABGIABGChdBhA/cBaDdBY5F7xFiQHEj4iLH9p5UXHhzVGjSk4A0TzlI3w4ZTn3XGcuDhUc9JXNgdd9NPJCRQMVMbxED7uDp0KF7mf2tyMjzDnd59V97N/0vZ2mea9ihKar+bHzre/N8Xb+7O/tNPV7k0d7f3Me91aP1fOaMuVyjDsNPpduJ5i6oW5gAAZgIF4MIH7gjEbJGaUs8BwkA4gfMRA/TKfoyve/X3T5218cemhRxBAVO/Tcuqyt5sXki228Om3UN/UNAzAAAzAAA8NnAPEDZzFIZ5FzwVuUGED8iJH4kamjcVFVlWR6XXfkkaLL0dov/S7TMfpbpnPy2/A7PtgO28EADMAADMBAPBlA/MAZjZIzSlngOUgGED8QPxAoYAAGYAAGYAAGYAAGQsIA4gfOYpDOIueCtygxgPgRkoaOpzvxfLpDvVPvMAADMAADMAADNgOIHzijUXJGKQs8B8kA4gfiB096YAAGYAAGYAAGYAAGQsIA4gfOYpDOIueCtygxgPgRkobOVvx5zxMgGIABGIABGIABGIgnA4gfOKNRckYpCzwHyQDiB+IHT3pgAAZgAAZgAAZgAAZCwgDiB85ikM4i54K3KDGA+BGSho6nO/F8ukO9U+8wAAMwAAMwAAM2A4gfOKNRckYpCzwHyQDiB+IHT3pgAAZgAAZgAAZgAAZCwgDiB85ikM4i54K3KDGA+BGShs5W/HnPEyAYgAEYgAEYgAEYiCcDiB84o1FyRikLPAfJAOIH4gdPemAABmAABmAABmAABkLCAOIHzmKQziLngrcoMYD4EZKGjqc78Xy6Q71T7zAAAzAAAzAAAzYDJ554oqgAcswxx0iUnBLKgpMNAzDgNwOIH4gfPOmBARiAARiAARiAARgICQPjx493xA8TAcL2U9jjU9iA6wAGcmEA8SMkDZ2t+POeJ0AwAAMwAAMwAAMwEF8GVAAxESC5dPjZB8cQBmAABj4liB+IHzzpgQEYgAEYgAEYgAEYgAEYgAEYgIFIM4D4AeCRBpynYvF9KkbdU/cwAAMwAAMwAAMwAAMwAAOGAcQPxA/EDxiAARiAARiAARiAARiAARiAARiINAOIHwAeacCNyscWxRcGYAAGYAAGYAAGYAAGYAAG4ssA4gfiB+IHDMAADMAADMAADMAADMAADMAADESaAcQPAI804Ci78VV2qXvqHgZgAAZgAAZgAAZgAAZgwDCA+IH4gfgBAzAAAzAAAzAAAzAAAzAAAzAAA5FmAPEDwCMNuFH52KL4wgAMwAAMwAAMwAAMwAAMwEB8GUD8QPxA/IABGIABGIABGIABGIABGIABGICBSDOA+AHgkQYcZTe+yi51T93DAAzAAAzAAAzAAAzAAAwYBhA/ED8QP2AABmAABmAABmAABmAABmAABmAg0gwgfgB4pAE3Kh9bFF8YgAEYgAEYgAEYgAEYgAEYiC8DiB+IH4gfMAADMAADMAADMAADMAADMAADMBBpBhA/ADzSgKPsxlfZpe6pexiAARiAARiAARiAARiAAcMA4gfiB+IHDMAADMAADMAADMAADMAADMAADESaAcQPAI804EblY4viCwMwAAMwAAMwAAMwAAMwAAPxZQDxA/ED8QMGYAAGYAAGYAAGYAAGYAAGYAAGIs0A4geARxpwlN34KrvUPXUPAzAAAzAAAzAAAzAAAzBgGED8QPxA/IABGIABGIABGIABGIABGIABGICBSDOA+AHgkQbcqHxsUXxhAAZgAAZgAAZgAAZgAAZgIL4MIH4gfiB+wAAMwAAMwAAMwAAMwAAMwAAMwECkGSgbN26c8MIGMAADMAADfjNQVVUlvLABDMAADMAADMAADMBAMRhA/ED8QfyCARiAgUAYKEYjxznpXMEADMAADMAADMAADCgDiB84PYE4PX4/USZ9ohZgoPQZoONBxwMGYAAGYAAGYAAGYKBYDCB+IH4gfsAADMBAIAwUq6HjvHSyYAAGYAAGYAAGYAAGED9wegJxengqX/pP5akj6shvBuh00OmAARiAARiAARiAARgoFgOIH4gfiB8wAAMwEAgDxWroOC+dLBiAARiAARiAARiAAcQPnJ5AnB6/nyiTPlELMFD6DNDpoNMBAzAAAzAAAzAAAzBQLAYQPxA/ED9gAAZgIBAGitXQcV46WTAAAzAAAzAAAzAAA4gfOD2BOD08lS/9p/LUEXXkNwN0Ouh0wAAMwAAMwAAMwAAMFIsBxA/ED8QPGIABGAiEgWI1dJyXThYMwAAMwAAMwAAMwADiB05PIE6P30+USZ+oBRgofQbodNDpgAEYgAEYgAEYgAEYKBYDiB+IH4gfMAADMBAIA8Vq6DgvnSwYgAEYgAEYgAEYgAHED5yeQJwensqX/lN56og68psBOh10OmAABmAABmAABmAABorFAOIH4gfiBwzAAAwEwkCxGjrOSycLBmAABmAABmAABmAA8QOnJxCnx+8nyqRP1AIMlD4DdDrodMAADMAADMAADMAADBSLAcQPxA/EDxiAARgIhIFiNXScl04WDMAADMAADMAADMAA4gdOTyBOD0/lS/+pPHVEHfnNAJ0OOh0wAAMwAAMwAAMwAAPFYgDxA/ED8QMGYAAGAmGgWA0d56WTBQMwAAMwAAMwAAMwgPiB0xOI0+P3E2XSJ2oBBkqfAToddDpgAAZgAAZgAAZgAAaKxQDiB+IH4gcMwAAMBMJAsRo6zksnCwZgAAZgAAZgAAZgAPEDpycQp4en8qX/VJ46oo78ZoBOB50OGIABGIABGIABGICBYjGA+IH4gfgBAzAAA4EwUKyGjvPSyYIBGIABGIABGIABGED8wOkJxOnx+4ky6RO1AAOlzwCdDjodMAADMAADMAADMAADxWIA8QPxA/EDBmAABgJhoFgNHeelkwUDMAADMAADMAADMID4gdMTiNPDU/nSfypPHVFHfjNAp4NOBwzAAAzAAAzAAAzAQLEYQPxA/ED8gAEYgIFAGChWQ8d56WTBAAzAAAzAAAzAAAwgfuD0BOL0+P1EmfSJWoCB0meATgedDhiAARiAARiAARiAgWIxgPiB+IH4AQMwAAOBMFCsho7z0smCARiAARiAARiAARhA/MDpCcTp4al86T+Vp46oI78ZoNNBpwMGosXAsWOPlrOPe59cWn2EXHPm4XL3uYfJo1MPkZ/NHC3Pz66U1+ZWyJ/mlcvumjJpq+t/6Xv9Tn/TfXRfPUaP1TQ0LU1T04aXaPFCfVKfMAADxWYA8QPxA/EDBmAABgJhoNgNHuen0wUDw2dg3DFHy9SJRzoCxcNTD5XtcyqTgoYRNgq91XPouVQU0XNrHqjD4dchtsN2MAADcWcA8QOnJxCnx+8nyqRP1AIMlD4DcW9wKT+dzrAxMOWEI+XGzx4um2eM8V3oyFU40bxonjRvYbMn+eUeAAMwAAPFZQDxA/ED8QMGYAAGAmGABr+4DT72x/65MHDRSX8l90x5lzMsJVdBolj76dAZzavmOZeysQ/XAAzAAAzEm9uyCBUAACAASURBVAHED5yeQJwensqX/lN56og68psBOhzx7nBQ/6Vb/zrHxh3nHBYKwSOd0KJCiJZBywJrpcsadUPdwAAMFJMBxA/ED8QPGIABGAiEgWI2dpybzhYMDGWg5tT3ltSQlnTCRr7f69AYLRt1PrTOsQk2gQEYiDMDiB84PYE4PX4/USZ9ohZgoPQZiHNjS9npbJYKA7qKik4g+tuvVpTMPB75ihu57q9l1LKycgzXX6lcf+QDFmGguAwgfiB+IH7AAAzAQCAM0OAXt8HH/vG2vwoAOlGoLjObq3gQlf20zFp2RJB4XwPcA6l/GIABxA+cnkCcHp7Kl/5TeeqIOvKbAToddDpgoDgMfP3Md8vrl8dP9HCLN2oDtQUcFodD7I7dYQAGis0A4gfiB+IHDMAADATCQLEbPM5PpytuDFxafYQ8P7sydpEebtHD/VltoraJGw+Ul3sgDMBA3BlA/MDpCcTp8fuJMukTtQADpc9A3Btcyk+nMygGThv/fnl06iGIHnVlGW2gNlJbBVUvnId7AAzAAAwUlwHED8QPxA8YgAEYCIQBGvziNvjYPx7212Ed7kgHPmcWQRgKE49rg3sg9QwDMBBZ8WPKlCmiL54Gl/7TYOqIOoKBeDBAp4NOBwz4x4BGMPz4gjEIH1miPdIJQWo7okD845NrH9vCAAyUAgORFD9U9Fi1apXzQgCJh1OF80w9w0DpM1AKjR55oPMVRQbqJ71Hdtdkjm5I5/Tz/aDd1IZqyygyQpm498EADMBAlURO/JgxY0ZS+DACiH6HY1T6jhF1RB3BQLQZoNGl4wUDhWfg7nMPI9pjmNEe6YQftSmsFp5VbIpNYQAGis1ApMSPyy67bIjwYQQQ/Q3HKtqOFfVL/cJAaTNQ7AaP89PpihIDpxz7Adk8g2Eu6QSMkX6vtlUbR4kZysI9EAZgIO4MREL8mDBhgmQSPmwBRPfFQSptB4n6oX5gIJoMxL3Bpfx0OgvFwNSJR8prcyuI+ChwxIdbMFEbq60LVW+kwz0ABmAABorLQOjFDxUzli5dmjbiwwgfZqv7IoBE07HCYaZeYaC0GaDBL26Dj/2jYf/LT3kvoofPoodbBFGbc/1E4/qhHqlHGIg3A6EWP/IVPuImgCxatEg6OztF/x566KGsES87duxw9tUtTmRpO5HUD/UTRgbocMS7w0H9j7z+F5/GMrZuYSKoz2p7GB45w9gQG8IADBSTgdCKH9XV1dLY2JhzxIcRPsxWj9U0wuhA5JpnxA8c5FxZYT9YCYKBYjZ2nJvOVtgZuObMw4n4CDjiwy2saB2EnSPyz70QBmAgzgyEUvwYqfARFwEE8QOHNgiHlnPAWa4MxLmxpex0NkfCwPVnIXy4hYhifda6GEldciz3AhiAARgoHgOhEz+mTJkyoogPI3yYrUaAaJq5dt7DtB/iB05pmHglr9Hnlca+eI09tg+v7Yn4KCu5iBciQMJ7PXEvpO5gIN4MhEr8UJHCiBaF3kZRAEH8iL4ziWBAHYeJAToc8e5wUP/51z9zfJSe8GEiTpgDJH+euQdgMxiAgWIzEBrxY8aMGb4JH0ZI0XOEyZHIltdCix833HCD6GSoBw8edCZG7e3tlV27dsmDDz4okyZNSrHdzJkz5S9/+YuzX3Nzs9x5553y1ltviR6jf11dXfLrX/9ajM1Xr14tb7zxRvJ3PcdLL70ktbW1KemaMk+dOlU2btwo7e3tkkgknNe+ffvkySefFP3N7McWcQAGSoeBYjd4nJ9OV5gYYFWX0hU+jADCKjDcU8J0TyGv8AoDVRIK8eOyyy7zXfgwAoieKyrOUqHEjxNOOEE2b96cFCZUbNi/f3/K51deeSVFdLDFD1v0cJQP6z8VPLZu3ZpMy/rJedvS0iINDQ0pdbJw4UJHSDH7vvPOO0lBRr9T0WXOnDkpx0SlTilH6Tjy1EX+dUGjS8cLBnJjYOrEI0tuqIdx+NmmijJaV3CdG9fYCTvBAAwUm4GSFj90KdsghQ9bANFzh925KZT4oZEbGrGhoscvf/nLZLSGRns89thj0t3d7egQTz/9tKhQonazxQ89Vn8zERm63bZtm5OeETBee+01mTdvnnOsSddEifz0pz9N1sXZZ58tf/jDH5zDVOS4+uqrk7/dfvvtsnfvXue3F198MZmXsNcj+c/fycZmpWmzYjd4nJ9OVxgYOOXYD8hrcysQP4q8skuuIo/WldZZGNgij9wDYQAG4s5AyYofKj4sXbo0sIgPI3yYrZ477AKILX4YkSGXrQ5tMc6jChVvvvlmRkHhRz/6kSNkHDhwQHRojB5rix86vMWIIiZd+/c9e/YkhQ/zu+6vgoj+2fl54IEHpK+vTzo6OmTJkiXJfJrj7rvvPkeo0SEwV1111ZDfzX5sS9M5pl6iXS9xb3ApP53OXBjYPGMMwkdIhA8jkGid5VK37MM9AAZgAAaKy0BJih/FFj6iIoAUQvy44447nMgOje7Q917O6dy5c0UFDP0zURq2uPHUU095HqeihlvcsNPX49y/b9++3fnuV7/6lWeapswaNXLPPfd47mOfg/fRdrap39KqXxr84jb42L/07X/3uYchfIRM+DACiNYd11jpX2PUEXUEA/FmoCTFDy+H5fTTT/c9CkTP4XXusH5nhABVCx566KGsZfMSI/Q4/dPhJAsWLEibhjlWxQm1lx/ih52mk6ks/+VS5rDWLfkuLaee+sitPuhwxLvDQf1nrv/6Se9B+Aip8GEEEK1DOM/MOfbBPjAAA8VkAPFj1aqkqIL4MTQSw4gfOr+Gig/pnDwjfuhW97GFikJFfthp6iSnnZ2dGV/f/va30+Y3XTn4PjcnFjthp+EwUMzGjnPT2SplBk4b/37ZXZM6kaZxqNmGxy5ah1qXpcwaeeNeCAMwEGcGED8QP5ICgVvAUOfGiB9tbW1pl5215+cIKvLDDK8ZjgPGMTjuMFAcBuLc2FJ2OpuZGPjxBczzERWRR+syU13zG/cCGIABGCgeA5ESP6688kq56KKLPF/6m5nLI92WyI+hkR9mzo+uri655ZZbkkKJ7TwGNeeHLbKoUOOeRNXOE++L49xid+yeiQEa++I19ti+dG3/9TPfzXCXkA93cQs3Wqdcc6V7zVE31A0MxJeBSIkfKnyk63jrb+lED/M94sdQ8WPOnDmye/duZ3aNdMvH/uAHP3BWYEm32kuhhr1o3erSurrkrk7Aeuedd3rWt851Mnv2bM/f0vHB9zjtMOA/A3Q24tvZoO69616HSLgdZz6HZ5hLprpi+Is389wLsAsMwEAxGUD8YNhLUiTwGvaiDmFzc7OzfKyKDs8++6zo8rf6/aRJk+Thhx92hAhVR5577rlkNIY9P0chxQ8VY3T+Ef3TOT/uv//+5Dk1PyqOaJRKa2uraLQPDq3/Di02xsa5MlDMxo5z09kqRQYenXoI4kfEoj6MIKJ1W4rMkSfuhTAAA3FmAPED8SMpEKQTP3R4yebNmx0BREUHFUH279+f8lmPnTFjRjItv8QPdbK+9rWvic5BYv50WVs7P/p548aNSVEkV8eM/XDiYcBfBuLc2FJ2OptuBi6tPgLhI6LChxFAtI7d9c5n7gUwAAMwUDwGED8QP5KCRTrxwziEjY2N8j//8z9J0UNFhl27djnRFxp1YfbTrZ/ih6av0SdPPPGEI4KoGKN/Bw8eFC3DDTfckJIXO1+899e5xb7YNxMDNPbFa+yxfenZ/vnZlYgfERc/tI659krv2qNOqBMYiC8DiB8RFj8yOSH8hpMKAzAQNAN0NuLb2aDuU+ueSU6jMa+HifDItGXy01T2uRdgDxiAgWIygPiB+EGUxDic4KCdYM4XT+aK2dhxbjpbpcLAsWOPltcvLyfqI+JRH0YQ0brWOi8V/sgH90IYgIE4M4D4gfiB+IH4AQMwEAgDcW5sKTudTcPAjZ89vKSFj/aMooSKNka4MVuN4rDfjzyqYzAP/em2OukX9hxGnAhiq3Vu6j8y23/fIh1m8jXd/q5p+GV0p9WxRZZVcc8YFivnLJJVD2+RHX/ukK4uu4JE9IuOP++QLQ+vkkXnYF/bvsu2ptAsHVuXDZ9n2C1p2yF+IH4E4vTwpD+eT/qpd+rdZsDuaPCejmccGdAIgD/NK10nvqOuTDrryqS1vlz21JVLa225tNeXS1tDmbQ2VMiehkOktXaUtNVWSmvDaGmtq3B+37NgjLTVVoxI1GmtK5M9dRXS2jBK9tWWyd66SmlpOER2142StxtGy27nHGXSVlsuLQ2Vzr57a8qkvaFCOjSftSMXXfwSQrTOIxf94RYsED+K6/BNWiLrnt0pbr3DJX9YH7tk59Y1UjOJtkjbIsSP+HCA+IH4gfjBU38YgIFAGIijs0uZ49OhyqWurzmztKM+NMLi7fpRsqthlLRfMVr21ldKR12/ENJSWy57VRxRwaGmTFpqyqVlfrm01KkwcYi0149M/GhTkWXBKGmpHyN7aivl7brR8nbdGGmfXyb7alT0KJPWOs1PpXTWl8n+ujJHJNm9YLSTZxVq/BIvCpGu1n0ujIRmH8SPkqnP6qs3ys7cVQ9LABGRlm2yZhb3acSP+DCA+IH4EYjTYz/95T3RADAQTwZC06knZLVkOvVRY+a3Xx2hQJBxSMrIIx9U/Nhdr1EdlY7w0VI7yhEiWhaMlraGUdJRXyF7dQhKfaW0NYyWvQ2VTuSFCiFO1MZI86cChkZ91JfLXo0AqR8lB+rL5EBDuWhkiEZ8tNRXSotGedRUSFtNpbTUjZGO+kMdUaQQIoVfaWjdR4pnxI+SqM/q67bIrp5UPcP51LJTtj2xQdbdWCM1dTVSc+M62fDENtnZ4rXvFlkW8wgQxA/EDxxingTDAAzAAAwUlIFIdfwRSEqi4x8mpmpOfW9JRyao069zbegwl721ZdK56EhpvfY4ab3uOGm/foJ0LPu4dFw7QdqvnSCty0+U9kXvk86afjHEGXKy4BBpG1H0R7kjpOgwFp1DpH1+ubTVvEs6/s+HZd/1x0mbnvv642XvdcdLh+bnxonScc2x0nLFYc4wnPYCzzvihwiiDISJ2Yx5Rfwofl1OWiPb3REfXTtl49LJGfJWLTV3b5FdruO6Xm2SaTFu1xA/ED8K2uHlKW88n/JS79Q7DMCAzUDGjnSMO13YJR6drs0zxoRC/HCEh4Zy6fqPf5DEbzZI4n+2SN8ftkrvH38hvTuflYN/eEYO7Pi5tH/z89KyQOfk0Lk/VKzoH5oyXNHAieyoLXeiTlrqRjnRJS3XnyB7f3q7HPj9s9L1x22S+P0vJfH7X0jvH56R7v/ZKj2bb5XOGydIu0aihED8UAYic70jfhS5LqtlzUtuBWOHNOU4hEUjRlKn+OySbY3xuBd7XYOIH/Gp+9AMe7E70LzHoYIBGICB8DHg1eHgu/h0OOJc12cf976SFz5UtEjO+VE/WjrXzZBE259FJCGJRI8k+nol0dcj0veOSFe77L93urTWVkhrjc4FovNtjHxIT3ttuXQ06DwildJRUy77bpooPS9sEOnrcs7f29snfT090pvoE4307/ntJulY+b/krYZDZU+dCiAjH/rjdxrKQiSuBcSP4tbjFZtkV8oIlg7Zcl11HnmqllXPucSTl9ZJdUwfRCB+xKcvgvhBWDtRPjAAAzAQCAOR6PDHtGNI3Y2sY3jHOYeFwjHXSUtbF4yRPQ2j5Z11F0lf+1vSJyJ9iT6RAfGjr7dL+g62Sefa6c7KK+21FbK/tlz21I+R1hEMe1HhxYn4qKvoFz803Rs/KT2/eVQk0SeJvoFXQqRXEtItCTm44wnZe/sp0uIIN6UvfKiwoixE4noqGfFjsiz6xkbZ9vrQpV27OnbJjmc3yqorMg0D0Wu7Wpp+ZysJu2RTXfZrfs1L1jGvb8w+bGRSk+ywDpFdm6RmmG3KTc+mChddz63KX7hwCyg922VNDvmp/tIyWefMH9IlXfZ8Iz1d4th8a5Ms+1IuQswy2WKHn9hLHOuSvf93u+zqcJWzs0N2ap3OzyX97HVorkXEj9xtZWwW1i3iB05PIE4PT+nD95SeOqPOCs1AWBtK8h2fTpFfdf3a3JFHRfgdkaDp65wfzqoqtWVy8N4LJdH+Z+lTsSEhkkiII4T0qPDQ0yUd987sj/yoHyUdtRWyp26UEzky/HyWS7sunVtT7ixv26rp3vx3cvDFxzT2RPoSCSfio08SovKHvnp/+1M5cNspsk+Xug1B1IfaRlnwi7NA0y0B8WNy46acVznpeHWDLDkn/b1s2mM7bVlCdj42LUs9rZHttuMvO2XDhenTd+pmxbaUpWg7ti7Lco506a2SbZ12djtky7+n2zfT9y7xQTR6JMP+k2pk3bO7Uspg5yL1fZfsfOImmZxRTHGd3xE/qqXm/u3SkWLb1JT7P3XJjodr8hd80uQH8SNDvaexWaD3mwLmAfED8QPxAwZgAAYCYSCsDSX5jk+nyI+6vuikvwpF1IcRLXTuDZ0/48B9M6Rn71v9w15s3yPRJ33d+6Xz3oucZXB1ktNWXaZ2xOJDubNcrgogLSp81JU5k5oefPE/ncgPzYKKIAlR+cOJR5GDv90s+26fVIBzBxs1okz4wVqgaRZV/KiWJY/tzNEJt+Dt2C7r0s2JUecaRvLSmsx15BIy9Cw7vpc5GiHVwe6SbSuGeW9d6pqvo3ObrBqmc5gSvSIiOx9OU4ZZa2Sb10oxlnm93qrAk34ozVDxY8PjuYorerYu2X53mvzmaY/UuhEZvjA1zDrNM7+BXusRyxviB05PIE5PoZ8gkx5RCTAQPgZorOkUxZGBe6a8K1TOOeKH/0KIMhH6a6GI4sfF39sxVPjo2CFbHripf1lXXdp16SrZ8OzO1GEZ6i+3pFvW1eWIZxEU3MNOHMc/45wZ02Tj65Y8kOMQE09OvpcyeEbkd00+87RINqVOMCLS0yE7nlgnN9Vd3B/dcc7FUnNjk2z5nT2OJZtA4bK5ZR7p6ZJdv9mUXKp3yTeaZNNvPIQRe6jMCJx0xI/49E8QPxA/ED9gAAZgIBAGPDtxI+iskF58OithruuwDHkxkRuIH/6LH5EY+lIs8WPWBtnpGhLRsTX98Irq+etku8sf73ppjWc0QuoEoJnm/UjjtGcUNFzzffyuyTMPudzrlvwstUB+RylMezR1SJAKSDelHUJULW4hIf3cJmnsuCt9+n6tUuPOs982zaWe2cefPg7iB05PIE4PT+nD95SeOqPOCs0ADbk/DTl2LV27TjnhyFBFfagAgvjhv/ihdlY2Qn3tFkX8GLpCSdfvmuTibCL6EMEkzRwZrqEsaef9cA+RSUYsZBjKkmva2cpSVTVEXPDXUa+WDb9PFtAZapJ9SdybXHOS7JSNnvOheIgfaSNzBu/z7qibXY/XjPhaQvwYtG+o70s5XD+IH4gfiB8wAAMwEAgDUW9QKV98Ok+51vWNnz0c8SPnuUDiM+eHih/KRq4cleR+bvHD9o9H+j7dUAb3aim5TDI64Awtetw1bsNzTg/XJKaveg8nqbHT+v0m2WQNZ+l69ibPek05RjJFlWS/j7od9R3fy37M8BmaJsvu3yAbHjavVbIoBwczNYom3USqbvFDxaMc5vC4e3sqYZ51mZ9N3Db1V1DKL2/DrzvO42U7xA+cnkCcnkI/QSY9ohJgIHwMeDVCfEfnJMoMbJ4xBvED8cOTAWUj1OwXQfyods91kXGODde91S2ceM7p4Vry1nOf1Lk7NDokRdjwFG5SjxHPfVz5zSAwuB11f8WP3PNl85xbHt3ixw5pylDuZPpu9gow54k7v4gfw6v3ZB3lUo9F2gfxA/ED8QMGYAAGAmEgDI0ieYxuhyfouh13zNGeTq+ZW6NUtwx7CWbYi9a/MhI0lwU7n9sBTX0WP7JPacSB1GiCDCuTeDpVLgFCl3VdOvR+l7rkrcfwmAs3yOAMGAMRHCnDYLyiOlIjSkbqWLsddcQP7widfFh323SkdZTPudl36HXop00QP3B6AnF6eEofvqf01Bl1VmgG/GzMSDvYzgP2zm7vqRPDN9+HOuSIH8GJH8pIaK8lt/jx+42DK63oaiv5vL65TVKm8PQUP9xzT3gIE56ix+C16nZwdzww+FuyHlKEDBH3vB8p0Se7NkmNc87U1VCGzEFxnb00bYZ5QbLk3+RxSDl8HfYy1EaTr1glG7Zul50tXdLVlZvO5S3QEPlh6pTtUM78sgniB+IH4gcMwAAMBMKAXw0Z6QbXacDWudv6mjPDN98H4kdwwofaWhkJ7TXlFj9GMvTAnZan+OF2lHfKhkm5X49q59xEA9d5XKuyrHlp0Nm3owNS0n59o0yzhIyUYTEZV4TJrTwp5xKRjp8tCYSj6qs3yI6WwfLn8w7xI7e6De39wOK91MuA+IHTE4jTU+gnyKRHVAIMhI+BUm8QyR+ds0Iy8PDUQxn2kvN8Hyo6xGvCUxU/lJFCMhdoWm7BInDxI8f5ISynzC0aeDvkVZIyvCZl3g97+Ior8iTFHjtlQ3J1E9c8Ii4xZTh15i6HLcIMJ71cjrl47fbU6ByjfPR0SVdnl3R17JIdr+5Ivna6RBJvW7uEJsmxTlNsLSIjYW+Aj2LYNBe7s0/h+yWIH4gfiB8wAAMwEAgDNOKFb8SxaenadPucSsQPxI+MDCgjob2GC+mAutPKKfIjR0d5GOJHVcpqIpbIYS9XmyKK6H1oVcryrju+Z1YtsQWTocNohlX/7olfC+D8Z8yHu3402uTVjbLqX6dJtWVfOw23mID4UbptlV1vcXiP+IHTE4jTw1P68D2lp86os0IzEIdGlTLSwVMGjh0bzslOGfYS7LAXtbeyEsr7htshHokD7k7LU/zwmPPDY8LSTLZMiegQEc85P9SZd60MY+bwSHHoPZZXTUnf/J5SNq/JUIdxz1xqzyGiSsQWWZZGhMhkD/1tzXMd/ZEbGr3R2SU7vneei8dpsuH3JsxDt7rPxa59hpYhxVZqa895SYj8yFY//D6UrZHaBPED8QPxAwZgAAYCYWCkDRbHF74TgE39senZx70v4xN/dXpL9cWEp8HWjbISyuswxakf4dADd1ppnPkUcUFEtt+dz/Wb22ov/XXh2tcZqpLqqHue244YGZjbI2X1mDTlyr/+U6NMRFeu+fd8bGH2TS2TChvbVpjfBraT7NVtRGTXJlmUg9CC+OGyYw42y58DzjEcmyF+4PQE4vQU+gky6RGVAAPhY2A4jRTH0LkJIwOXVh9RsuJGNtEF8SNY8UNZCSPjVW7BwvfIjypJWWlFYxCeW5W77VKWqBWRIcNWUu+1QyYpTVkFZoc0eU62ag9x6RcSml4djJrIK79ZnGW3EKRppxuCkpavKzbJrsHsiXhNxuqq51znF0H8SOUpbR1kqWeOK7wdET8QPxA/YAAGYCAQBmjEC9+IY9PStGlYV3pRYQTxI1jxI7Qrvric4hFNOulOK12EhFvA6NkhTcmJRTPfCxY9nuLmi5hhKemcz5Q8dcj2l6zj005aWi3rrNVgup7dlDIPiGe0SLrzZ/s+JX+qYOySTVdktoG7vbjpWdc6tS+tGyqgNG4Te6/cBJxUO2juGPaSX92464rPhbMf4gdOTyBOD0/pw/eUnjqjzgrNAI134RpvbFnatrz73MMiGfmREJFe6ZO+7nbZd/80aa0vl7frK2VPQ7m01atwUiEtdZXDerXWVUpHbZnsq62QloYxzuov+2/6pPS8+J8i0uecOSH6r8956XcHf7tZ9t0+KbS2VrFJWQnl9ex2vgOI/KiqqpY1L9muuEjXS2uGOuxu4WBWk+xIOSyXYSLuoSWDIRI7H5uWts5SolN6Bo8RXcnEM1pkuPeyadL0akqhRFq2yLIcz1F9nWvekHRDZ9z13LlNbnLb1/X54u/tSBFMED+GW8cc58e9EfED8QPxAwZgAAYCYcCPRow06RyVIgOPTj0ktA55psgPR4Lo7ZPEgTbp+NY0aa0pl9a60dJWP1ra6kZLR22F7K0tH9arva5S3l5wqOyuq5S3Gt4lLXUVsveGE6XrN9+XRKJPEoleR/qImvihrJQiw1nz5HaKAxE/qqRq1kbZaWsKGvOw9SaZ7HLAk/mftUa2uZZdzUkw0clArSiOwVPulI2Zok1ck6Umj3t9o0xLl8fhfj9E1BGRlm2yZr5ZacarfaiWaSs2yS6XbpLeJvZQnv7SdKS192RZ8n93DhE+9CgiP7zqgu+S1+lwr4FhHIf4gdMTiNNT6CfIpEdUAgyEj4FiNHKck85VMRj42UwVA4IdPlGo82USPxIJEX1J9345cO+FcqCuXDrrKmVvTYXsnV/uRG6015XJcF5tdeWyp7ZSWmsqHDGls75cOm/6pHS9+Jj0OrEf/XEfURM/lJViMDricxZL/KiqEq/IAunYIZvW3iQ1dRfL5HMulpq6m6Rp6w7pSIm+0IlCtsuaXKMj3EvKqhe/a5PUZHS43Kuj9AsGZsWYEdvdde6hERwDAsXr22TTw+vkproaqamrkSXfaJINT2yTnS4hyNk7S8TIkCFDelDHTtn2xAbZ8ECTND28QTY9u3Oorfuz4vyP+EFbXGj2h5se4gfiB+IHDMAADATCwHAbKo6j0xQ2Bp6fXRlN8aOvW3r11b1P9q6dJm01ZbKnYbS83TBK2urLpaV+lOypHz3sV2t9hbTXlUtHXYXsm18m7defIO88v0ESfd3S1xfNyA9lJWx8O/ktovihw1+WPOYdYWD520Pfdu2Qpll53E8v9IgyeWJR1vpKWeHFyUUuw2zyyJdLAJncuEV2uUWeoaX3/mbXFrnpnCznnrRMtlhTnngnZH/bJTv/3GF/Id4TpbpXm9khTa6yeV4bhWRv4HzuCVq985vFTrnknX2yXj+edV5AuyF+4PQE4vTwlD58T+mpM+qs0Az43aCRPh2zUmHgtbkVkRQ/dMaPT3uQvAAAIABJREFUHumTnq42aVv/L/J2w2jZs2CUdDT0ixUdGvVRXz6sV4eKHjVljqCi6XQsOETabjtN3nnh+yKJroEhL9Gb80NZKRVu88pHIR1Qd1rpJjx1OUAXf3OL7HQN30jxuK0PHa9ukCXZnHxX+lVVNbIpxenPUcRIWRkm+8oyedl9SB4H7vuz1siW13M0htqlp0N2PLFGLk6Xnvv7SUtkw6upgoZl3sG3XTtlU+NkqXpgx+B3+u73GzzmZkH8KEjdu+uKzxnvqYgfiB+IHzAAAzAQCAM08ogTcWHgT/PKoyl+JET6dOhLX6/0vPRf0vP/f1N6t94tiS13SffW+6TrqXuk66m7h/d6eq288+y3Zf9Ta6X7qbukd8t/SNdzD0r3LnWidJJTieScH8pKKK8Lt2AR1JwfQxy7ybJk7SbZ9nqHdLl8/66OXbLj2Y2y6orJw7ZxSkRAluVxB+vRJZpkW1lmSJmG31ZMvmKVbNi6XXa2dEmXKxqkq7NDdv1um2xau0ym5Tj0Z7BM/XmavLRJtry6SzpsW/d0Scefd8iWB6x03VEzXsvoViF+uO3L5+Gzn6vtED9wegJxegr9BJn0iEqAgfAxkGvDxH7+N/7Y2F8b79YIhgjO+aEKxMEekZ7ehEhPlyR6D0qit0eku0u6e7ud4SnSd1CG8+rr65aDfb3S29czcHy39PX2SE9vn3QnxHlFcbUXZYXr0d/rEftiXxiAAcMA4gfiB+IHDMAADATCgGl42NIJiToDYRU+NN+ZJjyVRLcclB7pSXRJb6JHDuj8kU48hj4G7nZiM1Jj3fP5pCEl3SKJHmdlFxU8elRtSfSLIc6KL865orXUrdo86tcD5eOeDwMwUCoMIH7g9ATi9PCUPnxP6akz6qzQDJRKw0c+6IT5zUB0xY+ESG+XSJ8KHX0iuvxsok8O6icVLgbWZXF+09+H80r0iiQO9r90uIuKHyqIJP8hfvjNL+lzj4QBGIgqA4gfiB+IHzAAAzAQCANRbUgpF51ENwPRHfaikRgiBwdeKkh0S0LeGRA/nOiMREISw3wNTOzhSCgaS+KIKhpPYuYaiWDkB8NeuH+47x98hgkY8I8BxA+cnkCcnkI/QSY9ohJgIHwM0Jj715hj29KybVQnPFUx4h1JOENd+nRujp79kujtkp7ug9Ldo3N0dEtimC+d36O7t0sS3Xsl0fuO9PUelL7eA9Lbe9AZUKNzN0Zxzo/QTnhawEk6uX+V1v2L+qA+oswA4gfiB+IHDMAADATCQJQbU8pGZ9FmILJL3erkpr3viPQdkN7Xfia9v1wvfb/+rvQ+/6D0vrBBup9/WLp/3Ty81/OPSM9v/lP6fvWQdP/qYel+7iHp+c0PpO+t3w4MtTFDX6I17CW0S90ifjBXCwzAQAgZQPzA6QnE6eEpffie0lNn1FmhGbCdQ94jFkSZgednV0ZztRczAen+PbL/voultX60tDbo6xBprSmXlrpyaamvGNZrT12F7K4rl9b6ctldXyF7GkZJ+23V0vXCBpG+/mlVoxj5oaxE+VqgbNzrYQAGSokBxA/ED8QPGIABGAiEgVJq/MgLnTE/GfjZzNERFT/6pzDVoS6day+U1vll0lZbJnv1VVMu7bVl0l433Fe5tNdVSkdtueyuqZDW+eXSceNJ8s6LP0pOoxpF8UNZ8ZNF0uZeBwMwAAODDCB+4PQE4vQU+gky6RGVAAPhY4DGd7DxxRbRtsWjUw+JpPjRl0hIdyIhvQc75cC906SzoUL21pXL3poy2dNwqLTUVUprbfnwXnUV0rZgtHRo9MiCCtm7oFw6bzpBul54VHp0kRldXCaCE54qK9wPon0/oH6pXxgoHQYQPxA/ED9gAAZgIBAGaPxLp/GnLvyti7vPPSyS4oez5Gyi1xE/9q2dLu115bKnrlLadciLDoGpLx9BuQciP2oqZNeCQ+Tt+kppv+FE6X7hB7qOrrPkSxTFD2WF69Hf6xH7Yl8YgAHDAOIHTk8gTg9P6cP3lJ46o84KzYBpeNjSCYk6A9ecefgIRICyoh7bWqfnL5cD982Qnr1vDayxIoN/iT7p694vnfde5ERptNVXjFD0MOUtl/b6Cmmv0zlDRklHXZl03DhRDr74nyKJPuf8URQ/lJWoXw+Uj3s+DMBAqTCA+IH4gfgBAzAAA4EwUCoNH/mgE+Y3A5dWH1FUAaPNETCMqJDfFvEjP3uNxNZ6rLLiN4+kzz0PBmAABvoZQPzA6QnE6Sn0E2TSIyoBBsLHAA0vna+4MHD2ce9D/MhbgIln5IeyEpfrgnLSBsAADBSbAcQPxA/EDxiAARgIhIFiN3icn05XUAwcO/ZoxA/Ej5wYUFaC4pLzcA+EARiIOwORFz8mTJggU6dOlYkTJwbSuedpdPieRlNn1BkMBMNA3Btcyh+vTuf2OZU5Ob8jHTZR6OMZ9hLcsBdlhPtCvO4L1Df1DQPFZSDS4sdFF10kjY2NsnTpUoQPnmzDAAzAQJEZoMEvboOP/YO1/8NTD0X8yCv6I37DXpQRrstgr0vsjb1hIN4MRFL80GgPFTxWrVrlvGbPno3TU2SnhyfrwTxZx87YuZQZoMMR7w5H3Oo/rCu+EPkRXOQHK71wT4zbfZHywnyxGYic+OEWPlQA0QiQUnYIyBsOKwzAQBwYKHaDx/npdAXJwNSJRxL5QeRHRgaUkSCZ5FzcA2EABuLOQKTEDy/hA/EDpzIOTiVlhPMwMBD3Bpfyx6vTOe6YcE56SuRHcJEfygj3hXjdF6hv6hsGistApMQPHd5ihrrYWyI/ousY7tixQ/RPt2Fw/shjdFmkbrPXLQ1+cRt87B+8/TfPGJPxyX+hJystRHqIH8GIH8oG12Tw1+SIbX5JozQ3N0tzc6PMqgph/j3zPEsanTI1S+MlUSkT5Rgx656shN+ukRE/qqurPYUPFUHq6+tj5xg/9NBDjiiQ7396XJicOC/x4+yzz5bHH39cnn76aZkxY0aoyhMm25PX7M4+Nkq1EQ1x+DsN1GF+dXjjZw9H/Mh56Eu8JjxVNsJ6Pc26RZ1/fa2WeSdmuSaiJhaEvDxjT50lS29YJgu/eLzFH+JHWK9F8p3l/uMh4ERG/FCBw472cL/XITFxckTiLH58+9vflr6+Pkf3CZuYEydGKWuqMBAHe9BI599IY7Nw22zKCeGb94PIj2AiP5SNsF7fg+JHszR/Y54c7+FgJMsWcrEgWQ5TxlCX52Sp/+aAcLV2sZxhylSF+DGknpO2CXcbRLmG1l8kxI+JEydmFD5UCGHoS7+j5RUpEWany6s8ixcvltbWVnnnnXdk5cqVsRK9wlyX5D36YgiN8NBGGJtE3yavza0IVfQH4of/4ocyEeZrP0X8aG6SFV+2owhc13SoxQJXWdQhDnl5zrhijRO1s/6GmTI+6eAjfoT5eiTvHtdpku2hv0VC/Jg6dWpW8aOxsVF0aEzcHSwvsSDMNolaecJcF+Q9+uLFSOuYBnpoI4xNom+Te6a8C/Ejp6Ev8Rn2okyE+dpPFT+apblphcxKN/wl5GLBkHqKWnkcJxHxY0g9Z3Ce2Tfc7XZoxQ9byMg25MUMgUEAGedMDBqlCUIRP3C4R+qQc3xwDNFhCHeHgfobXv1ddNJfIX4gfqQwoEyE+XpKih/r18ra7/QPo2i62Y4ksK6VqIkFUSsP4keor8Uw30eKlfdQih8qfFx22WXJKI6lS5dmjfywBZApU6Ykj42b45OLWPDUU08582XovsuXL5e33npLEomE/OUvf5ELLrggaTtdXWfr1q2yf/9+Z3/dp62tTb7//e/LpEmTkvupje00dRLSZ555Rg4cOOAc19vb65xDxSmv+tDInieffDJ5HrP/6tWrPcWcO+64Q7q7u52XvjdpmnlQtBzz5s2TH//4x7Jv3z6nbJp3HSpz//33ywknnJA8xhyr5dFytbe3J/c3Zb333ntF86Tpzpw5c8ixJg22wTnZ2Lo0bV2sho7zWo4IT7OK0tENzdCX+gppqR8tbbWV0rX2Aulpe1N0Bq2Ettb6X0I/9Umi64Dsv/dC6VBRo75c2mvLZE99pbTWl6c4+fmsPtNaXyGtDWOko7Y/D+215bLvhhPl4As/kJ5EQnr7EpJI9A3kJ6G5kK7fPiGdt50q7SM4bz55LMS+YR/yovfTpPixdrGc/+UV0uRMftokjTPGD72+sokF486QmVc1yprvNA1MotosTd9ZI41XzZQzxuV77xonZ3xlqay4azCt5qYmWXPLYpl5+jhX3s6QxWv7hZu1V53h+q3/vKacKb/b5Rk7SWYtW50UgJqbm6TpruUyd8i5TDnyyZ91zMWLpfGupgE7a6SNlmmhnH/S2NR8m7zpfB4nni+LV64fOKZRZg7c+02Zmm+ZZR1rR36MlUlfXiar1w7aUOtj+VfOkHHp2o+xE+Wc+ctk9X2pxzRecb5MHGvKMbDNIY/K2NiTzpeFN6yW9U0Dc5Q0N0vT2tWybP45Q9NMly++t+rYVQ8xtk3oxA+duPS6665LmcPDCBv5bOO6Ckg+4oeKEyoimD/bub/55ptl7969zk8qHOi+KgCYv1dffVV01RXjhBrxQwUDfXn9dXV1OSKWOUa3c+bMkTfffNNrd+d8Jn9aLnNcNvFDxZpdu3alTVNnMDdp6VbL8corrziih/sgLXtLS4vztW0f+3jel6YjTr0EXy+IEHQ+4srAHeccNmxRoBAOd65pqODQXjNKWutGyzv3zZDEvrekLyH97V+iTxKJXunTbfdBaVs3Q3bXj5KW+lGyb3657Kkrl/75QoY7Z4YKJ5Wyr7ZCdteNdt533jTRET9U8nDOLQnpS2iG+px8dP/2p9J5+ymyW0WbuuELL7napxD7KQthvw6SDrQzaebxMu8bAw7qd5bL9HTOrsfSsGMn18vqgcgRZ/WY76yXJsvZbV7fKLPcDn5ap+14mXXz+qSA0vxgk6y3BJXm5vXSeIk9N8lIxY+1svZbg455/+o35nOT61x67883f1VSNXaSzLstU5nWyuLJlgBihIWm9bLetqtl+2TdpRE/1n5r7aANB5a/NWVrumXW0MltTzxfltp2cNfhtxbLWTYTOeRx7OSFsuZBY0sVw9ZLk/W5+a6FqWmmZYI2N+z3Gj/yHzrxQycuVZHDnsA0H9HD3teOHomLI5SP+KEevQocjz32mOgkovPnz3eiIjRqYs+ePU5nSNPTCBC1n0ZMPPDAA6IihooCmzZtSooIRvzQNDs7O1MiLG6//fakkPLSSy8lIy80veeee84RFlTk+NGPfpQUVDQPL7/8clKQyEf80AQ1PS2XiVC5+uqrnegT/U3FFo02MUzoebU8+vrlL3+ZXD5XBTRdTteIPogfwTvTpo7YhsP2fjRipEnnLgwMnH3c+8IhftSVSXu9ih+jZP89F0hf2xuSSHRLou+g9PX1OMKDRl8kDh6Q/esuFI3WaK/XCV3LpaWhXFrrhyt8lElrXbnsrquUjoZRsqdhjKgQ03nTJx3xQ4UPSfQ4AogjgvT19keD7PiJ7Lu1WloaRjt5KYQ44XcaykIYmM2Ux6QDbVYMOXGerB5wlNd/7TwZazujxtm1HHAn7QkzpdE46HctlenVg5EZ406fK433DTi/a13Os5229X78pSsGnPa1snTqxME8jDtD5q0ciEhoapRZE8w9c6TiR7M0f2e1LJ52cjIiYlz1dFl6l3HaU5cBzj9/Y+Wsq40QsVaWWuepssv0nUaZacqUtHWzND+4VpY3TJdzPn2ynPzp45N5TNZdGvFDo1dWXzVdTjZRN+NOlulL+idJVRFk9eW2gGQJX3ctTYlEGXf6PFlhhkRdN32wPrLm8RxZOlD3TSvnWdE/Y2Xi1KWydoCzlGgci4NM3PKbYT/e21CJHxr1oUMj3OKHRoLYooZ5r8NhbrnlFs/fzD7GcY+L85SP+KEREtdee21SBDA22rx5syNIpHP2dTiJ/tm/G/FDV2DxGt7ilebXv/51Z6iLW0gx+dCIjJ07dzrnykf8ULFCl8M16ZitCje6RK6KM4sWLXJ+18iT3bt3O+ewhRlzjAo0v/71r4eU1/zONhxOOfUUTD3R8Yh3hyPu9b95xpgQCCD9Q05aGsbI/vsvlETbH0USvY7o0Jvok4MiolvZ3yKd93xJWjRSpLZM2hpGO9EXI4n8UPGjpb5S9jnDaCqc4S+dN58k3S9skIQKH309In09khiI/ujTKJRXN8reW06WttoKaQ9B5IcyEIXrIOlAG/GjqkpOrjMO8npZOsUjGsElfpw8sOpIs1e0iDqzlqCyev7JWe12xlUDQsFtswYdbeMUTxgUZxpnmPvwSMUPV9RF8lyzpHEgesV20PPO34S5smJgOJHnajpjz0uKBKsvHxhulBQWXHVg8mYPWUojfqy9+qyh9qsaL7NuGRCQrDofe8Hy/mE1KaKSsW+VjP3iMlnvlKFRZpnoj6x5NENw1L6DaZnr5ryvDUTCfGuhtVTv0P3M/myxjZuBUIkfkydPTgoZtmhx5ZVXJr83ooZuNTokl5VgTj/99CGOcFSdoXzED1u8MPb4whe+IG+88Ybj7P/whz/0tJsZdqLiyTXXXOPsY8QPrzQ1bTMfhy08fPe733WiLex0TD7M1qs85vwa3eE154d9DpOObr2O0+E9KtioYHLPPfd4ljdb2exz8D4YJxs7l6ad3Q0Qn+mUxImBmlPfW/LiR7szMWmFtKqYcOXR0tpYLe23nir7bjtV9t92quy76RTpbKyWztv/XtquPlo6NOpDoy7mV0p7XaUTATLcyAkVTvbo+RsqZHfDGGmtHy0di/4/ab9uguy97X9J562nOtuOWydJ5y2nSMdtfy8dN54oHVe+W1pDEvmhDESBeS/xo6rqZKn/pke0RtLZbZRZSSc8u/Cgdko6ut+sl5OTx3rfN5PiS9NqqR8y58Y4Od6JgDhZjjcRDVXZ82DKaYsYuSx165XvfPM31titablMT1P2c65aI+vXr5c1i87q58oc4xKabOZMmdLP+eFt36opSweEjDVS/+n+faZf1y+IaLSPfY7B90bIUDFmIN2seZwuy4149O9D5wwZO36inKx1OXG8h0iTJu9p7DeYT46Lky1CJX7oMBUjbmhUh3FwVAgx39tbMzTGPs7+3by30zJpRnXrJRa4y5rJmdeICBUPcvmzxYdMaer5vcSPn//851kjKrzK4yVipDuHXXav4zRCxB0NYh+j77OVzb0/n0vTMade/K+XODWulJXOpBcDv/2qDhEZ/tAQ34+tLZPW2rL++TMaKqVlwaGyu/4QaakbLe11Go1RJnt1bo/6Cnm7tn9ejpa6Cmmt6Z+vQ4e/jCSP7fVl0l5TJnt00tMFo6W9QQWVCmmr12EtlbK7fozz6tDoEM2HijQqwNSqYDOyc48k37kcq3XvxUQYv0s60FYUgFOOMxcODkswEQSezq5xiptlMBLD455hjs0gACTtN/YsWZwy98QaWXHDUqm/+LzBIRwpTrB/4sfYLw8MwbHtk2f+kpEiOQg/SRsYe/khfoydNRCJslYWn6l1NWg/MydIpm3jJQP1m0Mej7+kcXBy1+YmWb96hSy7ap5MPwvBI1nXKSx7XDv8nvZ+Gyrxwz28xSx3q5EbRsiwt0b8UKcmmwCiUSVxcH68xAJ3uTM580b80KEoOsmpCiHpXrp6yq233jrsyI9M+TB59iqPl4ih+3sJLCYd3Xodl+0YPS6XfNrn4b3/TjY2Lk0b02jTQYk7A9ecefiIxIFcnOyR7NPaUCF7Fox2Ji5trSmTlhoVHir6IzzqdFLRStmrq7KoCFJTLp2OGFImu+srpa1+1IiGnuhKMebcGoGiw2BUTHFEjvrK/rw4eaiQ1joVPUY5wofu11mvokwJi0p1ZaJ1HxX+04ofVWPlLDP8pHmtLFQn2dPZNeKHcaTT3Bs9j02zrzp7YyfK+VfoyjFm3o3B7VpdHeVE+9hB5z0lssNyGk05U37PJU/p9skjf0nxI2V4ip1/j/fpzutRprwjP6pMnTVLv5AxaL/m76x3IlA0CiXda9kFA/nNIY96nei8L8tWm9VqBuuxef0aWfblSUR9WHUalftKUOUIlfhhCxv6Xoe7GCfH/Zt+rq+vT/6u+2USQPQ3k1aUt15igbu8mZx5I35oNITXvBnutMznTGnqPl4iQylEfuhQFx3ykm6ojOY9W9mMDdiWpkNOvQRXL0E1bJzHo1NMR6kkHM9jxx4tf5pX2hEKzuSlKkTUVzqRFxrt4czr4XzXvwyuLnHbUjdGWmt1uIvuq1EhKlSMTIDQOUTaFqi4UdY/meqCSmlTgaW2TDrqy0TFmf5ID81TuexzRJJKaR3hkJuRCEa5HKt1rnUflXuTEQWa7cgGc4/RCIeBJWSbdV4GT2fXONJNsnxa+vtVMoIil8gPc/6B7bjjTpZzps2TxTesGRiuoROU2qvRDDrvKeKGlY4pZ8rvnuVJLcP4y1f3T77qZZ8c85cUP0ol8iM5b4oRrAbtt6Yu+5wsSfZzsF9yX7XV2PEy8fTzZGbDUllhuGpulrzOadVpStp8H5l7Uj71GmrxQwUOXXFDX17ih9fEmjrExWtfW0iJsjM0UvHjkksuSS4Tq05/rrbKJhB4iR9mzo99+/bJVVdd5Xkur/J4RXBoPr3OYeff6zjm/AjOMbbrgvfRtHs+jRP7pnamsUd07HHjZ0s7+iMXZ75/n1IXcUYmxORuh+zn0TqP0jVsRAFP8aOqSsZOXpwc/rLmm2YiVO85P9Zckd5x9po7w9uOJ8t5X5krc78yU85Jie7ov2+MPWlwwtPk5KDWsI0UccNyiE05U37PwXkfmu9h5G9GY7+AkkH4GX/WTJn7lbkya8rEfr5yyJspU96RH0Pm/Bgrs24biMi4xWOSWcuOKXWWJY+mTHO/6BXdMU7O//eBCU/XL5Xz0p2D7yN1v0nhpwB1G3rxw0vIsL9zO1FTpkzxFD/0GPe+UfzsJRa4y5lNqNDlXvVPl8H92te+5mk3/d5eLjZbml7ChF+rvaSL4vASP7QMuvSt/r344ovJZXiNzVjtJZpOuqlftoWt30I3YKQXHUEgTnWpEQCvX45wUEhxoZTT0rqOUtSHXqtJBzptZMPYwclKB5YmbXbNQ3HOkgEnNiUaw7qnnThLVgxMfJl9tZfBSTJXz7eXYjXpDUYpDAoZ42XeN/qd96YbrKVYjXNlRbAMHmMP48m+2sugsDOM/GVb7aXqZFk4sKxuMgoii7CQUncpw2lMJE6zZF3t5a6Fycln7eV7F0+2VvgxNlQh7NSzrOVqbfvZYpipJ2vVoPXL5HyzQoyVnvcwqsHj49SWUNbh1XuoxI9sy9baood573Ze0s0Pgvgx6ORkEypU2Ojo6HAEAZ3Xw46wUbFg69atzlARXYb2ggsucMSRbGl6iR8qLDz33HPOeXTy1B/96Eeiy9tqnc6bN09efvllZzUY3UFFHVPXXiKG/uZ1DnOMbtMd98gjjziTnuo8Jyr8aKSR7q/bp59+2imr5iHdSjb2OXg/yBm2iJ8taKiH11Bjt+jZ7etnvruk5/4oZTEhbHnTuo7aNZxd/NDhCtNlecrcGy5nd8JMaTS/37VUzj9p0HkeVz1Tlt83EFVw31I5z8sJth3iqipJiikPrpGlUydac0KMkzPmrxiYQHO9LP384P0kudxu89qUY8ZVT5fFqweWdm1uFm/xQ4fRrJbF006WcQN50eOWDggSzc0rZO6EwXPln7+xctbVA8v3uss07gyZe7MRjxplpjlPAcSP5uYmWX3V9MFJYsedLNOXmOidZllx6cCyulpmexJXtYXb7l9ZLmsfbJbm9ctl+scGbJEtj0nRp1nW3zYvRTgZe9L5stRMartyrox3MRC164zyDF4/hbRFqMQPncPDiBq5bN1zfqizlU78iMuKL4WI/FA7rl692lkC1lEmROTgwYOiS9KqQKB/ujzs/fffnxQkhiN+6HnmzJmTjLww5zJbnYtDxRf981P8UMHllVdeSZbNnF+3Wl4jBCF+xM+ZR8DJr84L2XiRlj+dAuwanF2fn60rmWQfMsE+4bWR1nEUr6mcxA996j9tubVqh0v8cIbH1MtqI4BohIhOnGl/Xr9C5p06KIpktOXYs6TeEiyaH2yS9eubrPM3y/rrpsvxtsNsCzDJCBUzuWaTNA3kxVP8WL9aVhhH3OPYxktcESjDyd/YSTJv5aAIY8qUXFXlwTWy0I64yCYs2FE7npEf62X1ygHBZUiZmqXpllmp9lNbnjhLGtcbmzWLyWNT8vj1suJyawhLDnk8/oLlg/O0NDdLk5uL76yWervcdp3yPpL3nIzXfp51HirxI9OQFbcYolEiEydOTDrfxknRyAT3vvrZSygxx0RpWyjxQ22iSwxv27ZNdE4OI3roCjAvvPCC6MSott2GK35oGlpnTz75pCOuqOCgosdbb73lCDAmXT/FD83DpEmT5Pvf/760t7c7ZdXytrW1Od89/PDDjh6C+JGfI2zzwft42K6QjRdpBeekY2t/bH1p9RGIHxEXf7SOo3j95Cp+VFWNl5k3G+d9qPjh2EajGJasSFmhpek7a6TxCiv6IGfnZpyc8ZWlsuIuS/R4sEnWrl4uC1OiEqxr+sTzZeEta6RJIxTUYXf2Xybzzj5eZt7c/52n+KFDfoas3qLLsi6TuaePS1Pvw8hf1Tg54+LF0miX6TtrZfWyuSlREY4tcxAWknXnKX7oZKZjZeLUhc75jMjSdN9qWfaVM5IRLkOYduywXFavNXXdLM1NTbLmlsUy022LHPKo6WuUx8IbVstaSwxTLlYs8Sh3znxY9c4xaRiNvo1CJX5MmDBBchn6opOXmmVwbadKj3cvl2uEEBVW7H15Hw9nrBD1bAQYFT/MMJ9CpEsaMBg1BoZ0mOh8xLbzAQv9HcxHpx6CABJRAUTrFs6j70jLx6leAAAgAElEQVRRx9QxDISLgVCJH+oIXHTRRZ6RG0bEyBTBkW6pWxVUVBiJmqNBeQrjPOuwl6ampuR8I7Zd7QlRt2/fDkPjCmNz28a8j45N6SCEq4NAfflfX6eNfz/iR0TFD61briH/ryFsjI1hAAbyYSB04oeKFOmWqzUCiEZ3aCSHzu+hESD6Pl3Ehx6jDiwOVnQcrELXpQ650WEuOoGrrkBj0tdhP2bS1a6uLkeUM7+xhScYGMpAPo0T+9KZiQsDTH4a3jk90s3HEsVJTuNyPVJO2h4YiDYDoRM/1KFQQSOX4S9GDMm01SEyOClDnRRsMmiTxYsXy9tvv52c51Qnc9W5Tcw8JzoHyY9//OMhy+Biw0EbYgtsoQzQoYh2h4L6HX79/viCMUSARCQCROuSa2H41wK2w3YwAAN+MhBK8UM70RrVMVIBRCNIGO6CU5aLY65DXx599FHZvXt3cmlbXeFGJ1q94YYbENAY7gIDOTDgZ2NG2nSWwsyADpHYXRO9CIh0kRFR/V7rkOEu3IvCfC8i7/AbdQZCK36ow6oRINmGwKSL+tD5PxA+ED5yET7YB05goDAMRL1BpXx0GkfCQP2k9xD9EfLoD63DkTDAsdxDYAAGYMBfBkItfhiHJNucHrYAosNcNGrEHMu2ME4NdsSOMAAD2RigQfe3Qce+4bfv3ecehgASUgFE645rMPzXIHVIHcJAtBmIhPhhOtwaCaKTl+qKLypymJeuEKMCycSJExE9cghNN/ZkizMLAzBQSAboUES7Q0H9FqZ+N89g/o+wDYvROoP/wvCPHbEjDMCAnwxESvwoZCedtHD6YAAGYKCwDPjZmJE2naWoMHDKsR+Q1+ZWEAESkggQrSuts6jwRzm4l8IADESZAcQPIiGIhoEBGICBQBiIcmNK2egsFpKBqROPRPwIifihdVXIuict7iUwAAMw4B8DiB84PYE4PTxBL+wTdOyJPcPIAI25f405to2ebS8/5b0IICUugGgdce1F79qjTqlTGIguA4gfiB+IHzAAAzAQCAN0JqLbmaBu/anbxae9GwGkRAUQrRu494d77IpdYQAG/GIA8QOnJxCnJ4xPqckz0RUwUFgG/GrISJdOUpQZuObMwxFASkwA0TqJMnOUjXsqDMBAVBlA/ED8QPyAARiAgUAYiGpDSrnoJPrNwPVnIYCUygowWhd+1zfpc0+BARiAAX8YQPzA6QnE6eEJemGfoGNP7BlGBmjI/WnIsWs87EoESFnRI2CI+IjHtcY9lXqGgegygPiB+IH4AQMwAAOBMEBnIrqdCeo2mLplDpDiCSDM8REM49xLsDMMwICfDCB+4PQE4vSE8Sk1eSa6AgYKy4CfjRlp01mKCwOsAhO8AMKqLtxf4nJ/oZywHnUGED8QPxA/YAAGYCAQBqLeoFI+Oo1BMTB14pHy2tyKog8DKZV5OPzKh9pYbR1UvXIe7iEwAAMw4C8DiB84PYE4PTxBL+wTdOyJPcPIAA26vw069o2XfU859gOyecYYBBCfVoJR26qNua7idV1R39Q3DESbAcQPxA/EDxiAARgIhAE6FNHuUFC/xanfu889DAGkwAKI2hSei8MzdsfuMAADfjKA+IHTE4jTE8an1OSZ6AoYKCwDfjZmpE1nKc4M1E96j+yuCX4uDL+GmxQrXbWh2jLOLFF27qUwAANRZgDxA/ED8QMGYAAGAmEgyo0pZaOzWGwGThv/fvnxBQyDGa5worZTGxa7Hjk/9xIYgAEY8I8BxA+cnkCcHp6gF/YJOvbEnmFkgMbcv8Yc22Jbw8DXz3w3w2DyHAajNjP2Y8u1BAMwAAPRZQDxA/ED8QMGYAAGAmGAzkR0OxPUbWnVrUYwPDr1EESQLCKI2ohoj9Jil3sJ9QEDMOAnA4gfOD2BOD1hfEpNnomugIHCMuBnY0badJZgYCgDl1YfIc/PrkQEcYkgahO1DcwMZQabYBMYgIEoM4D4gfiB+AEDMAADgTAQ5caUstFZLGUGdFjH65eXx14EURswxIVrtZSvVfIGnzDgLwOIHzg9gTg9PEEv7BN07Ik9w8gADbq/DTr2xb6ZGDh27NFy42cPlz/Ni58IomXWsqsNMtmI37iGYAAGYCDaDCB+IH4gfsAADMBAIAzQoYh2h4L6DUf9qgBwzZmHy2+/WhH5SBAto5YV0SMcbHIPoZ5gAAb8ZgDxA6cnEKcnjE+pyTPRFTBQWAb8btBIn04TDOTHQM2p75XNM6K3PK6WScsGD/nxgL2wFwzAQNQZQPxA/ED8gAEYgIFAGIh6g0r56DSGlYGzj3uf3HHOYfLa3PBGg2jetQxalrDWA/nmHgIDMAAD/jKA+IHTE4jTwxP0wj5Bx57YM4wM0KD726BjX+xbCAYuOumv5J4p7wqFEKKCh+ZV81yIspMG1xAMwAAMRJsBxA/ED8QPGIABGAiEAToU0e5QUL/Rq98pJxzpTBRaSkNjNC86eanmDeaixxx1Sp3CAAz4yQDiB05PIE5PGJ9Sk2eiK2CgsAz42ZiRNp0lGPCXgXHHHC1TJx7pTCD68NRDZfucSt8nTNVz6Ll00lI9t+aBeva3nrEv9oUBGIgyA4gfiB+IHzAAAzAQCANRbkwpG53FODKgq6joHBuXVh/hCBR3n3uYPDr1EPnZzNHy/OxKZ+iMLjO7u6YsKZToe/1Oh6zoPrqvHqPHqsihaWmarNDCNRXHa4oywz0M+MsA4gdOTyBOD0/QC/sEHXtizzAyQIPub4OOfbEvDMAADMAADMAADKRnAPED8QPxAwZgAAYCYYDGOH1jjG2wDQzAAAzAAAzAAAz4ywDiB05PIE5PGJ9Sk2eiK2CgsAzQoPvboGNf7AsDMAADMAADMAAD6RlA/ED8QPyAARiAgUAYoDFO3xhjG2wDAzAAAzAAAzAAA/4ygPiB0xOI08MT9MI+Qcee2DOMDNCg+9ugY1/sCwMwAAMwAAMwAAPpGUD8QPxA/IABGICBQBigMU7fGGMbbAMDMAADMAADMAAD/jKA+IHTE4jTE8an1OSZ6AoYKCwDNOj+NujYF/vCAAzAAAzAAAzAQHoGED8QPxA/YAAGYCAQBmiM0zfG2AbbwAAMwAAMwAAMwIC/DCB+4PQE4vTwBL2wT9CxJ/YMIwM06P426NgX+8IADMAADMAADMBAegYQPxA/ED9gAAZgIBAGaIzTN8bYBtvAAAzAAAzAAAzAgL8MIH7g9ATi9ITxKTV5JroCBgrLAA26vw069sW+MAADMAADMAADMJCeAcQPxA/EDxiAARgIhAEa4/SNMbbBNjAAAzAAAzAAAzDgLwOIHzg9gTg9PEEv7BN07Ik9w8gADbq/DTr2xb4wAAMwAAMwAAMwkJ6B0IofU6ZMkRkzZozopWmE0YEgzzi+MAADYWSAxjh9Y4xtsA0MwAAMwAAMwAAM+MtAaMWPK6+8UlatWjWil6YRRgeCPOP4wgAMhJEBGnR/G3Tsi31hAAZgAAZgAAZgID0DiB8Me0EAggEYgIFAGKAxTt8YYxtsAwMwAAMwAAMwAAP+MhBa8aO6ulpOP/30Eb00jTA+PSXPPPWHARgIIwM06P426NgX+8IADMAADMAADMBAegZCK36EseMf9Tw/9NBDon+dnZ2yaNEihCWiCWAABlIYoDFO3xhjG2wDAzAAAzAAAzAAA/4ygPgRA+dk6tSp8thjj8nu3bult7fXESh029raKhs3bhT9vRDCTNjFj+XLl8sLL7wg3/rWtwpij2w21fPo+fS82fbldyI9osAADbq/DTr2xb4wAAMwAAMwAAMwkJ6BUIkfs2fPFp2k1I+Xph0F58JdhsWLF8uePXscwSPdf+3t7XLzzTePuPxhFj++8IUvyBtvvOGY6C9/+YvMnDlzxPZw14X9uba2Vtra2pzz7dixw9dz2eflPSJKMRmgMU7fGGMbbAMDMAADMAADMAAD/jIQKvGjECu8pFshJoorv6gD/+c//9lxsHUoyre//W2ZNGmS42jrVm2h0R/6pwKICiUjcYzCLH5ouX/2s59JX1+fvPTSS3LWWWeNyBaa3h133CHd3d3OS9/bttX09Tx6Pj2v/RvvESiiygANur8NOvbFvjAAAzAAAzAAAzCQngHEj4HlcqMofqjYoc51T0+PrF271tPB/trXviZ79+51BJDNmzd77pOrIxZ28SPXcua6XybxI9c02A8hJEoM0Binb4yxDbaBARiAARiAARiAAX8ZCJX4UYgVXtKtEBPFlV+eeuopR9TQYS9z585NK2xs377d2U+Hfejwj+E6W4gfqY464keqPYbLFcdFx4406P426NgX+8IADMAADMAADMBAegZCJX7gBOXnBP3whz90RI39+/fLNddck1bU0Pk+Hn30UVm3bp0z3EOHy+i8F/qnAoqX3XWeCvfvtvhx/fXXy69//Ws5cOCAs59OsPrWW29JY2OjZ3o6DGfDhg3O/CSJRMI55uDBg6LnueGGGzyPOeGEE+TOO++U119/PWUiV/3sPo+uPqNDf3QYypo1a+TnP/+5dHV1iZ7ru9/9rpO+KZM9B4dti+bmZrn33nvl7bffdo7TTKptn3zyyZRJY43o5BTC9Z9J207Xy8aZyqZl1t/terHLp6LL6tWrHXubCW61HrZu3ZqST3P8cGxvjmWb3zUZd3vRGKdvjLENtoEBGIABGIABGIABfxlA/Ijwai8qALzzzjuO+/3HP/5RLrvsshSHOZ0jls0x1+OMUGA77kb8UIHBDKVx+f6OSKEih33us88+W1555ZWkoKAOuzrrRgTRz4888siQY37xi1+k7KNChH2MfR4jDugwoH379qVkS/Ntl8kIFPqdbQtdLcekn5KAiLz55psyZ84cJ51NmzY5Qospgx6j71V80dVd3OnaNtTf1B6/+c1vkufS8ttl0/RUyDDzt+gxdvk0gseIHu58qp3t+UyGY3s9Hy9sMBwGaND9bdCxL/aFARiAARiAARiAgfQMhEL8mDx5sixdutSZoDPdhKWF+F7PoecaTqe+FI/R6ACNcDAOuzrEr776qtx6660pjrM777bD73bMzb6ZxA91uN0TrH79619PRpOoI3/ttdcm7azL8GoeNRLjgQceSEY16Ao8r732muO/d3R0yJIlS5LH/OAHP3DmM9EyPf74445goHnTZXu3bduWTE+50O+NOKCJ6bn++7//W2655RbnezPUx5Qpnfih53r66adlxowZTpq61c9GaHDbKtOwl0w2NnWm6f7Xf/1XStnM+VTEURuY+nCX7+WXXxazgpHbJlpuc9xwbG+OZYsAki8DNMbpG2Nsg21gAAZgAAZgAAZgwF8GSl78mDhxou+ih1s40XPm26kv1f1VALn//vuHRGKoY61OvkaHuIdQZHLMTTmNUGA7/Hbkhw7NMPuarYoXKmLon32cvtc/FTrcedHhOibqwQxP0QgLjcLQPxUD3MdoNMMf/vAH5/df/epXTj5sceC5554bcozm0ZQpnfihw3jc59LPmp7+6dK1uoStKe9wxI8FCxY4K++oQKMRJCYts7XPpyv1zJs3b0j5XnzxxSH5NOlqPk2ki6aZr+1NPtgifAyHARp0fxt07It9YQAGYAAGYAAGYCA9AyUvfuhTa7c44fdnPedwOvalfIwKAur0/ulPf0pGKqgjrE72zp07ZeHChckyj1T80KgPFRu87KFihP7Zk6v+9Kc/db7T41auXJlynA7taGhoSInQMKKCDunR+Uq8zqPDZDQ9XU5W07DFD9v5t4/NJn7Ygo19nEZSaNSKDvf5j//4j2R+TD71e33//9q72185qsIP4P4H/g0mvOCFiYFXagIveGFMeEFiDAESjRpNfCCSGEQDGhFUrAmGwAsQUaMgRppi1SbWIGib0JAmRkyrrQSVlEcppOWpPLQwv3yH39mcu727e+/2zsx297PJ7e69OzNn98ynOed858xMvc6kOs51RbJPcmrOV7/61TXrlPVLIJTZH7mjT/4+6/tNKm+zdV8+g2fhxzwGNMaTG2N1o24YYIABBhhggIFuDSx8+HHZZZf1Hn6kzHk69mfLOglC7r777uaZZ55pB9pJHjIjI7e9zXeYNFCuv18JCupAoMz8mBZ+JJTIIxdUTTnZZmZylAus5r3M9MjpOdleOcWkLruUMz7Tol5m/PWscCDLl+80aeZH/V3r7We2Rz5LHnWwMk/4UWZipD4uvfTSdR3W+yfhRT7LrO9Xr1N/j83Wff29vRaAbNaABr3bBl39ql8GGGCAAQYYYGCygaULP3Ir2xtuuOGMApNlDz/qAUtmDmTWQh779+/vPPwowcV4QJLZNrlrSoKP+pFZEAkj6pkpZRt1gFJ/p/VezwoHss684UcdLGxV+FEHMOPfpy6vBBmzvt9665TtbqbuyzqeBR/zGNAYT26M1Y26YYABBhhggAEGujWwdOFH6ZBffPHFc4cgyxB+ZECba2TkFraTTp8odVVORSlhwrSBclmnBAVl8J2/l1BiPNgo6+S53H63lFW/V15/5jOfaU/nyOyPcjHRzKzI6S9ZppSzzDM/6tOCSr2U50984hPN//73vzYjOtOZH2Wb5XlW3ZflPAs/5jGgQe+2QVe/6pcBBhhggAEGGJhsYGnDj3TMzz333CZBRq7JsJnrhCxD+FGfilEGyJMGK/WpFgk+ugw/StBSBvclpNm+ffuai4WWz3rTTTeNZoMkOMnfc12QN998s72N76RrfiTwSfBz1113nZXX/Dh+/HiTi5SWeqift+qaH/PUff05vBaAbNaAxnhyY6xu1A0DDDDAAAMMMNCtgaUOP0rHvIQgGw1AliH8yF1BcrHPPF544YXRXUFKnZTn+s4oTzzxRHPRRRe1P3mdR7YxfoeTXCfiueeea99fb+ZHLvA5624vDz30UDuwr0OaP/zhD6cN9tcLYmbd7aX+7gcOHGi3Oeu0kNRHmc1Sn3JSl9/H3V5yS+Byd5tJd3vJHW7ymHS3l/rUm7Kf6+9R9tk8dV+251nwMY8BDXq3Dbr6Vb8MMMAAAwwwwMBkAysRfpROem5he/XVV8+cBbIM4Ue+cy5gWm4tm4HynXfe2STsKPWRmQX/+Mc/2oue5vSS3GmkvJdwIo9cD+See+4ZBSAZnOfuMOVRBtJZr5yOkvdy6kuuJ5I7reS9rJdTXfLI4D6/l7JyrZE8cveWrFPClqy7e/fu9tSXkydPNrfffvtonZ07dza520k+d5Yp5WQ2Q8KB/D2fPYFXytmK8CPb/OMf/ziqw/rz5fPXdZEy6xka+bzl++Z5vTCivL93797RPqm/W/bdnj172u+Wa6Hs2rVrtM1Z329SefPUffmcngUgmzWgMZ7cGKsbdcMAAwwwwAADDHRrYGXCj8z+yJ1DNjL7Y1nCjwxMclpITqGY9sigPmFHCR2y3jXXXDNxvSyf2R3jA/4Sfrz88svtrIT1ysy6O3bsGA3aU1Zmcvz3v/8dLZ5lEpDkOY8M9B999NFR6JB1EgRk4J738hhfJ7/nzjJZNj+zwoEsM2vmR8KZlDdeVsp/6qmn2u9RystzgpgjR460n6/8U2aVTAojsl6+W77vpO+Wvz/yyCNr6mPW95tU3jx1X39HrwUgmzGgQe+2QVe/6pcBBhhggAEGGJhsYCXCj4QZ27Zt21DwkXBkmcKPMphOMJEBeh0oJGDIaS31LIx6IJM7rBw+fHi0TtbNYP62225r/54BfT3boYQfmeFx5ZVXrrl7S9bNdT6yH+oyyuvMokgocvTo0TXl5TP/5Cc/WRPMlHUS1uT0mnym8r1yLZB85q997WtrypkVDmSbs8KPzCjJZ3n++edHwUTqMHepSdBRPlf9nBAp9ZHAIj/lNJxJYURZN98tZT399NOj71bq/+abbz6tPmZ9v2nlzVP35XN6Fn5sxoDGeHJjrG7UDQMMMMAAAwww0K2BpQ4/5r3jy7KFH5sZnFh27WB2WmigrtbWlfpQH7MMaNC7bdDVr/plgAEGGGCAAQYmG1jK8OOCCy6Y+za3yzjzY9aAxPuTB63Cj8l1w4262awBjfHkxljdqBsGGGCAAQYYYKBbA0sXfmzkgqazrvth5odBXRnUCT9YKBY8n7kFDXq3Dbr6Vb8MMMAAAwwwwMBkA0sXfswKNjbyvvDjzAc5yzJQFH6wsCyWF+F7aIwnN8bqRt0wwAADDDDAAAPdGlj48CPX7dhIYLGVy6TMRRgo+AzDD7yFH8PvA/8PlmcfaNC7bdDVr/plgAEGGGCAAQYmG1j48CO3qL3uuut6C0BSVso04FqeAZd9aV8ysBgGNMaTG2N1o24YYIABBhhggIFuDSx8+JFBS8KIzMbI6Shd/qQMwcdiDJIMVu0HBpbPgAa92wZd/apfBhhggAEGGGBgsoGzIvwwCFq+QZB9ap8ysHoGNMaTG+NpdfPDH/6weeutt5o8nn322ebjH/94M2n5etlXXnmlufLKK9dd9vrrr28OHjzYnDhxot1u/snrv/3tbxPXSbkpvzzeeeed5t577113+/Xny4GFJ598sqzWPv/yl78crZfXG32kHvId6+17PZ8r9abeGGCAAQZWzYDw432rNwAx6LTPGWBgCAOr1sBu1fetA40zDT8uvPDCZt++fU2Ci0mPkydPNg8++GBz3nnnrQkZxsOPrP/44483H/7wh9csN/69689fyhR+6HCPO/E7EwwwwAADXRsQfgg/XN+EAQYY6MVA1w3asm6/Dg/OJPw455xzmj179oyCjwQgx48fbw4dOtT+vPTSSyWbaJfJslmn1Ot64cdrr73WXHvttaNlyrL18yOPPDLabnkxKfzI99u+ffvEn1/96lfNpz71qanl1WV7rSPNAAMMMMAAA8WA8MOgp5dBzxBHmZVpdgMDi2WgNDyeN9cJ2arw44477hidPnPq1Klmx44da8KNzPTIjI+8l8frr7/efPe73x0FDeuFH1nugQceGC0zvm8/+clPNkePHi2Zx+h5Uvjxr3/9a+K2xrft9805Ul/qiwEGGGBg1Q0IP4Qfwg8GGGCgFwOr3uDO+/23IvzIqSk5RaU89u/fvyb4KJ8ty/3zn/8sizUHDhwYLVeHH2+//XaT02PyyPU8cl2Pso36+ec//3mTZfPILJPyEH7ogNdOvOaBAQYYYKAPA8IPg55eBj2OwC/WEXj7w/4YwkAfjdoylrEV4cfXv/715tVXX22zh8zouPHGG9cNK1J/t91222iGyLFjx5rPfe5z7bJ1+JGLqT722GPt9nIR0qwzXvc5ZSbhSR45PSan15SH8EMnd9yL35lggAEGGOjagPBD+CH8YIABBnox0HWDtqzb34rw46c//eloBsas64Yk7EjokUd9d5Xx8CPX5ih3ocl1Pcbrvw5cMuvk4YcfLtlHI/zQwR334ncmGGCAAQa6NiD8MOjpZdAzxFFmZZrdwMBiGei6QVvW7dfhxyg92MCL+la3CRvKY9Z1NeqQIxdFvfvuu9ed+XHdddeNbmFbzxAp++H+++9vL5xabom7d+/e8hEmhh+jBdZ5UX+fUoZnHWUGGGCAAQYY2KgB4YfwQ/jBAAMM9GJgow2T5dZ2YrYi/Ni5c+coTthM+JGVyiyNOhQpp87kYqd55Loeub5H2Xcf/ehHmyNHjrTv5VofX/ziFxvhx9r9WurKs3phgAEGGGCgHwPCD4OeXgY9jsAv1hF4+8P+GMKAhn2+hr0OPxIk/Pa3v514K9gEDOVCpPVMid27d7dBRP7ZivCjnA5Tn9py+PDh0cVRv/e97zVvvPFGW2Yurpp9n3LLowQq+Xs9K2XarW4zA2XShVXZms+WelNvDDDAAAOrZED4IfwQfjDAAAO9GFilxnUrv2sdfsy6Xke9bB1+1AHDZsKPSae9lPCjvotMLqiaMCTfvczyyHLlYqgbCT9mfbatrFfb0uFngAEGGGBgtQwIPwx6ehn0DHGUWZlmNzCwWAZ0MObrYNSBxrzhx1Zf8LSEH9mn9e1sM8PkiiuuaJ5//vl2kkd9G1zhx3z73/8b9cYAAwwwwMDWGBB+CD+EHwwwwEAvBjTc8zXcWxF+XHvtte3tZpNIlOt1TNofG7nVbR1+1HeHSdjxs5/9bHTqTa4JUsoRfsy3/0v9eVZ/DDDAAAMMnJkB4YdBTy+DHkfgF+sIvP1hfwxhQIM9X4O9FeFHfXpKApBch+Occ84ZBRNl3+Rvjz76aLk0R3PgwIHRcvUFT+vwI+vmVrd55O8vvvhi+7o+DSbLCD/m2/9l33hWfwwwwAADDJyZAeGH8EP4wQADDPRiQIM9X4O9FeFH6v6OO+5ow4kkE6dOnWp27NgxCjbyfoKPXbt2te+VICNll/02LfyoZ4u0yUfTNI8//niT0KWsL/yYb/+X+vOs/hhggAEGGDgzA8IPg55eBj1DHGVWptkNDCyWAQ32fA32VoUfCTf27NnT5CKmeeQ5d485dOhQ+/PSSy+V3KJ9L8vWs0OmhR+5C0tOeSmP8VvfZt9vJPyYdreX7du3t3e5ueqqq0aBClPzmVJv6o0BBhhgYBUNCD+EH8IPBhhgoBcDq9jIbsV33qrwI5/lwgsvbPbt2zcKQEpYUT9nVsiDDz7YnHfeeWtChmnhR7Zd30732LFjTa4FUn//jYQf9eeY9Lq+TW69fa915BlggAEGGGBgmgHhh0FPL4MeR+AX6wi8/WF/DGFgWmPkvcmdla0MP0o9X3/99c3BgwebEydOjDKGvM41Psrtasuy5XlW+JH1cp2PPHINkLJeeRZ+TN7HpY48qyMGGGCAAQa6MyD8EH4IPxhggIFeDGjMu2vM1a26ZYABBhhggAEGphsQfhj09DLoGeIoszLNbmBgsQxokKc3yOpH/TDAAAMMMMAAA90ZEH4IP4QfDDDAQC8GNObdNebqVt0ywAADDDDAAAPTDQg/DHp6GfQ4Ar9YR+DtD/tjCAMa5OkNsvpRPwwwwAADDDDAQHmGwR0AAA54SURBVHcGhB/CD+EHAwww0IsBjXl3jbm6VbcMMMAAAwwwwMB0A8IPg55eBj1DHGVWptkNDCyWAQ3y9AZZ/agfBhhggAEGGGCgOwPCD+GH8IMBBhjoxYDGvLvGXN2qWwYYYIABBhhgYLoB4YdBTy+DHkfgF+sIvP1hfwxhQIM8vUFWP+qHAQYYYIABBhjozoDwQ/gh/GCAAQZ6MaAx764xV7fqlgEGGGCAAQYYmG5A+GHQ08ugZ4ijzMo0u4GBxTKgQZ7eIKsf9cMAAwwwwAADDHRnQPgh/BB+MMAAA70Y0Jh315irW3XLAAMMMMAAAwxMNyD8MOjpZdDjCPxiHYG3P+yPIQxokKc3yOpH/TDAAAMMMMAAA90ZEH4IP4QfDDDAQC8GNObdNebqVt0ywAADDDDAAAPTDQg/DHp6GfQMcZRZmWY3MLBYBjTI0xtk9aN+GGCAAQYYYICB7gwIP4Qfwg8GGGCgFwMa8+4ac3WrbhlggAEGGGCAgekGhB8GPb0MehyBX6wj8PaH/TGEAQ3y9AZZ/agfBhhggAEGGGCgOwPCD+GH8IMBBhjoxYDGvLvGXN2qWwYYYIABBhhgYLoB4YdBTy+DniGOMivT7AYGFsuABnl6g6x+1A8DDDDAAAMMMNCdAeGH8EP4wQADDPRiQGPeXWOubtUtAwwwwAADDDAw3YDww6Cnl0GPI/CLdQTe/rA/hjCgQZ7eIKsf9cMAAwwwwAADDHRnQPgh/BB+MMAAA70Y0Jh315irW3XLAAMMMMAAAwxMNyD8MOjpZdAzxFFmZZrdwMBiGdAgT2+Q1Y/6YYABBhhggAEGujMg/BB+CD8YYICBXgxozLtrzNWtumWAAQYYYIABBqYbeM8HP/jBxo86YIABBhjo2oAGeXqDrH7UDwMMMMAAAwww0J2B95x//vmNH3XAAAMMMNC1AY15d425ulW3DDDAAAMMMMDAdANOezHdvZfp7q69sFjXXrA/7I8hDGiQpzfI6kf9MMAAAwwwwAAD3RkQfgg/hB8MMMBALwY05t015upW3TLAAAMMMMAAA9MNCD8MenoZ9AxxlFmZZjcwsFgGumiQ77vvvsaPOlg2A138X7HN6R1i9aN+GGCAgeU3IPwQfgg/GGCAgV4MdNGpWLZBr+8jyImBLv6v2Obyd+rtY/uYAQYYmG5A+GHQ08ugxxH4xToCb3/YH0MY6KJBFhYIC5bRQBf/V2xzeodY/agfBhhgYPkNCD+EH8IPBhhgoBcDXXQqlnHg6zsJdLr4v2Kby9+pt4/tYwYYYGC6AeGHQU8vg54hjjIr0+wGBhbLQBcNsqBAULCMBrr4v2Kb0zvE6kf9MMAAA8tvQPgh/BB+MMAAA70Y0KlY/k6FfWwfM8AAAwwwwMCiGhB+GPT0MuhxBH6xjsDbH/bHEAYWtSH0uXTSGGCAAQYYYICB5Tcg/BB+CD8YYICBXgy8973vbfyoAwYYYIABBhhggIEhDAg/DHp6GfQMcZRZmWY3MLBYBoZo5JSpc8UAAwwwwAADDDAQA8IP4YfwgwEGGOjFgI6HjgcDDDDAAAMMMMDAUAaEHwY9vQx6HIFfrCPw9of9MYSBoRo65epkMcAAAwwwwAADDAg/hB/CDwYYYKAXAzodOh0MMMAAAwwwwAADQxkQfhj09DLoGeIoszLNbmBgsQwM1dApVyeLAQYYYIABBhhgQPgh/BB+MMAAA70Y0OnQ6WCAAQYYYIABBhgYyoDww6Cnl0GPI/CLdQTe/rA/hjAwVEOnXJ0sBhhggAEGGGCAAeGH8EP4wQADDPRiQKdDp4MBBhhggAEGGGBgKAPCD4OeXgY9QxxlVqbZDQwsloGhGjrl6mQxwAADDDDAAAMMCD+EH8IPBhhgoBcDOh06HQwwwAADDDDAAANDGRB+GPT0MuhxBH6xjsDbH/bHEAaGauiUq5PFAAMMMMAAAwwwIPwQfgg/GGCAgV4M6HTodDDAAAMMMMAAAwwMZUD4YdDTy6BniKPMyjS7gYHFMjBUQ6dcnSwGGGCAAQYYYIAB4YfwQ/jBAAMM9GJAp0OngwEGGGCAAQYYYGAoA8IPg55eBj2OwC/WEXj7w/4YwsBQDZ1ydbIYYIABBhhggAEGhB/CD+EHAwww0IsBnQ6dDgYYYIABBhhggIGhDAg/DHp6GfQMcZRZmWY3MLBYBoZq6JSrk8UAAwwwwAADDDAg/BB+CD8YYICBXgzodOh0MMAAAwwwwAADDAxlQPhh0NPLoMcR+MU6Am9/2B9DGBiqoVOuThYDDDDAAAMMMMCA8EP4IfxggAEGejGg06HTwQADDDDAAAMMMDCUAeGHQU8vg54hjjIr0+wGBhbLwFANnXJ1shhggAEGGGCAAQaEH8IP4QcDDDDQiwGdDp0OBhhggAEGGGCAgaEMCD8MenoZ9DgCv1hH4O0P+2MIA0M1dMrVyWKAAQYYYIABBhgQfgg/hB8MMMBALwZ0OnQ6GGCAAQYYYIABBoYyIPww6Oll0DPEUWZlmt3AwGIZGKqhU65OFgMMMMAAAwwwwIDwQ/gh/GCAAQZ6MaDTodPBAAMMMMAAAwwwMJQB4YdBTy+DHkfgF+sIvP1hfwxhYKiGTrk6WQwwwAADDDDAAAPCD+GH8IMBBhjoxYBOh04HAwwwwAADDDDAwFAGztrw4wMf+EBz8cUXN5dffvmW/2S72f4QR0aV6Yg8Awwsq4GhGjrl6mQxwAADDDDAAAMMnJXhR8KJW265pdOfbdu2teHKsg5CfC8DbAYY6NuATodOBwMMMMAAAwwwwMBQBs668CMzMroOPsr2E4CYAWKA2PcAUXnMLauBoRo65epkMcAAAwwwwAADDJx14cfHPvax3sKPhCCZZbKsAxHfyyCbAQb6NKDTodPBAAMMMMAAAwwwMJSBsy78uOyyy3oNP1Jen4MDZRmMMsDAshoYqqFTrk4WAwwwwAADDDDAgPBjxrVDhB8Goss6EPW92O7bgE6HTgcDDDDAAAMMMMDAUAaWOvz4wQ9+cMazRIQfBoh9DxCVx9yyGhiqoVOuThYDDDDAAAMMMMDAQoYfF1xwwZrb19YDgc2c9nLuuec2V1999RkFIMKPdweiX/nKV5pXX321yePXv/61U4HeZ4Be/7/0moeNGNDp0OlggAEGGGCAAQYYGMrAQoYf4wFH3akef6/cmWW957LeZtYZ387ZHH7UgcXDDz+84cDizjvvbP7+97833/nOd0br1NsSfhjolv9bnlnYjIGhGjrl6mQxwAADDDDAAAMMrET4kc55ZpPMcxrMqoUfX/rSl5pjx461Mzwee+wx4YcZHiMDmxnkWlYosp4BnQ6dDgYYYIABBhhggIGhDKxM+JGO+Dynwaxa+HHRRRc1Bw8ebN5+++3mL3/5y2jga+aHwex6g1l/42IzBoZq6JSrk8UAAwwwwAADDDCwUuFH6aRv5jSYVQs/Sh2NPws/DHLHTfidic0a0OnQ6WCAAQYYYIABBhgYysBKhh/psG/0NBjhx7sDPOGHge5mB7qWZ2bcwFANnXJ1shhggAEGGGCAAQZWNvxIp3wjp8GsWvhxxRVXNM8++2x7zY/6Iql1+HHfffc1O3bsaK8N8s477zT5eeWVV5rf/e53zYc+9KHRqTKp42wjj1w/JBdQfe6559rlU8all17aLvv+97+/ufnmm5t///vfzZtvvtkun23m2iO/+c1vTttmLriaR7Zx4403Nv/5z3+aU6dONS+//HJz//33NydOnGjf//3vf7/ms5SB2F//+tfR+vm+5e+eDdYZ6NaATodOBwMMMMAAAwwwwMBQBlY6/CgDnRtuuGHi7XCFH+8Ohurw48UXX2wDjDZBGPvn0KFDzUc+8pFRoFDCjwQSb7311mjpBBcJHhJ87N27d7S9hBi5pW4JQbLC+DZL+PHGG280r7/++mibWe+mm25qQ5T88YknnmhyDZOyn/P82c9+tnnhhRfadR566KE179XLed3tIFj9rmb9DtXQKVcniwEGGGCAAQYYYGClww8zP04fgG1k5kcCin379jWXX355Gx7kef/+/W2AkRkbu3btGoUKJfxI2pCZGZkdcs011zRf+MIX2uDjF7/4RTtrI9vcvXv3aJZHQpGdO3e27+Xiq/fcc89omyX8yDYTgCTE+MY3vtF8+ctfbtfPzJR8jtdee6351re+NVovA+7bb7+9OXnyZLte7v5jEH66AXWiTroyoNOh08EAAwwwwAADDDAwlIGVDT9yzY9t27ZNnPFxyy23tO+Z+fHuQLCe+ZHgI+FEPUDKDIvDhw+3MyrKrI68X8KPBBHf/va316yT9++99952Zsef//zn02ZpZJuZvZFHTlUp5ZXwIyHGXXfdNfp7ef+qq65qjh8/3q73wAMPrHk/IU0eTz75ZHPJJZesea+s79ngn4FuDAzV0ClXJ4sBBhhggAEGGGBgJcOPzFQo4casZ+HH6eFHwof1Boc//vGP25kaORXl+9//frtMCT/qQGS9dSf9LdcKySPPZZkSfuQ0l4Qy5e/184EDB04LOepZLZOuB1Jvw+tuBsDqdXXrVadDp4MBBhhggAEGGGBgKAMrFX5s5DSX8TBE+LHx8COns2SGR67tceutt244/MhFUn/0ox81R44cWXOtjza9+P9/Nht+lNNb6iAmnymfLZ/xm9/85rqhiYH56g7M7fvu9/1QDZ1ydbIYYIABBhhggAEGVib82OhpLsKP2Xd7mTTzoz41piwza+ZHZuEk2Mg1OvKTu8bk91zkND/5PY/Nhh+f/vSnm6NHj7brlgubls+Su8qMXwjVwLf7ga86Vsc6HTodDDDAAAMMMMAAA0MZWInwYzOnuQg/5g8/cnHRzc78+NOf/tSGHrkYam53Oz5ATugxT/iR7ST0yOOpp55qPv/5z7fPCVhyQdTxcvxuYM5A9waGauiUq5PFAAMMMMAAAwww8H9cB/o5pWJIWwAAAABJRU5ErkJggg==;" vertex="1" parent="1">
          <mxGeometry x="330" y="1024.8000000000002" width="337" height="124.63" as="geometry" />
        </mxCell>
      </root>
    </mxGraphModel>
  </diagram>
</mxfile>
